<?xml version="1.0" standalone="no"?>
<!DOCTYPE svg PUBLIC "-//W3C//DTD SVG 20010904//EN"
 "http://www.w3.org/TR/2001/REC-SVG-20010904/DTD/svg10.dtd">
<svg version="1.0" xmlns="http://www.w3.org/2000/svg"
 width="700.000000pt" height="700.000000pt" viewBox="0 0 700.000000 700.000000"
 preserveAspectRatio="xMidYMid meet">
<metadata>
Created by potrace 1.14, written by Peter Selinger 2001-2017
</metadata>
<g transform="translate(0.000000,700.000000) scale(0.100000,-0.100000)"
fill="#000000" stroke="none">
<path d="M1388 5474 c-228 -53 -467 -302 -510 -532 -14 -73 -4 -103 43 -131
36 -22 74 -19 131 10 39 20 45 28 29 45 -35 35 -13 172 42 262 31 52 115 147
123 140 2 -2 -1 -21 -7 -42 -6 -21 -12 -46 -14 -55 -2 -9 -25 -95 -50 -191
-102 -387 -145 -562 -145 -586 0 -14 7 -39 16 -56 l16 -30 -44 7 c-63 10 -127
43 -148 77 -13 22 -19 25 -27 16 -23 -31 -35 -81 -30 -125 4 -39 12 -54 45
-84 48 -45 102 -62 202 -63 186 -2 314 54 448 194 113 117 214 343 246 545 16
100 19 129 21 210 5 243 -94 382 -285 398 -25 2 -71 -2 -102 -9z m142 -169
c45 -43 53 -82 46 -204 -13 -205 -44 -336 -114 -481 -38 -79 -60 -109 -129
-177 -46 -46 -86 -82 -91 -81 -4 1 -18 -4 -30 -11 -23 -12 -24 -12 -17 21 4
18 49 192 100 386 64 244 92 365 89 390 -5 42 -44 96 -87 122 l-31 19 44 19
c25 11 52 22 60 26 8 3 41 4 73 3 47 -3 62 -8 87 -32z"/>
<path d="M4130 5463 c-192 -67 -381 -341 -454 -658 -34 -146 -41 -306 -17
-390 28 -100 96 -168 181 -183 101 -17 248 23 340 92 108 82 216 220 300 383
41 81 42 81 61 62 11 -11 24 -17 29 -14 10 6 -10 -66 -46 -164 -12 -36 -21
-68 -18 -72 14 -24 38 15 70 117 31 98 39 114 57 115 12 0 34 3 50 5 24 4 27
2 27 -25 0 -16 -18 -87 -40 -158 -64 -201 -64 -289 -1 -326 70 -41 162 -7 217
79 l37 58 13 -49 c29 -117 121 -132 222 -36 17 17 32 28 33 24 3 -31 10 -48
30 -69 42 -45 119 -25 183 47 22 24 37 36 33 26 -8 -22 -85 -320 -243 -937
-19 -74 -39 -137 -45 -138 -5 -2 -49 -30 -97 -62 -91 -60 -173 -136 -224 -207
l-30 -41 -46 56 c-127 158 -287 262 -482 313 -113 29 -301 32 -410 5 -166 -41
-314 -122 -428 -235 -34 -34 -64 -61 -66 -61 -2 0 -28 24 -57 54 -131 130
-280 208 -481 252 -46 10 -227 12 -274 3 -27 -5 -62 -12 -78 -15 -122 -21
-291 -111 -399 -210 l-38 -35 -55 51 c-83 75 -130 105 -285 180 -8 4 -55 18
-105 31 -124 32 -304 32 -423 0 -339 -89 -597 -364 -656 -696 -13 -72 -13
-246 1 -314 54 -283 243 -526 500 -642 119 -54 206 -72 349 -73 131 -1 160 2
250 24 111 28 297 132 364 204 l24 25 74 -69 c154 -144 362 -228 576 -234 244
-7 483 88 652 259 l61 62 50 -52 c239 -246 593 -332 919 -224 167 56 285 138
408 282 l56 66 15 -24 c32 -49 140 -156 199 -198 337 -241 772 -228 1091 32
297 242 404 656 261 1017 -13 33 -33 76 -44 95 -11 19 -30 51 -41 71 -26 48
-171 195 -232 237 -103 69 -250 128 -373 149 -72 12 -267 5 -330 -11 -32 -9
-61 -15 -62 -13 -2 1 10 32 26 67 53 118 105 299 257 889 19 74 40 152 45 173
l10 37 68 0 68 0 15 48 15 47 -68 3 c-38 2 -69 6 -69 10 0 4 19 19 43 34 123
78 162 167 96 222 -72 61 -182 11 -238 -108 -11 -25 -33 -91 -49 -148 -35
-125 -74 -205 -108 -220 -65 -30 -64 55 4 306 28 104 50 192 48 195 -5 7 -136
5 -143 -2 -2 -3 -5 -14 -6 -25 -1 -20 -2 -19 -30 4 -70 59 -168 11 -258 -128
-27 -42 -66 -135 -75 -182 -8 -44 -64 -146 -88 -162 -21 -13 -32 -15 -50 -6
-30 13 -28 33 21 222 42 164 48 205 33 241 -21 49 -57 55 -200 34 -35 -5 -35
-5 6 11 46 16 59 42 42 79 -19 43 -77 56 -128 30 -39 -20 -62 -67 -62 -126 1
-47 0 -49 -27 -49 -23 0 -36 -13 -84 -82 -145 -214 -311 -351 -423 -351 -151
0 -187 200 -87 488 50 144 105 254 158 312 50 56 81 71 138 68 69 -5 83 -39
48 -118 -29 -64 -56 -156 -47 -164 15 -15 103 -7 137 13 19 11 48 41 66 67 30
45 40 70 78 202 26 89 68 177 98 205 15 14 27 29 27 34 0 5 -23 6 -51 4 -35
-4 -64 -15 -94 -36 -41 -29 -44 -30 -59 -13 -37 41 -181 60 -256 34z m1610
-702 c8 -16 5 -23 -19 -40 -33 -24 -42 -26 -36 -8 26 75 36 83 55 48z m-522
-44 c12 -14 17 -36 16 -80 -1 -114 -79 -232 -148 -225 -41 4 -59 38 -52 103 7
67 9 74 29 115 47 93 114 131 155 87z"/>
<path d="M2286 5092 c-21 -81 -42 -158 -47 -172 -5 -14 -10 -34 -12 -45 -2
-11 -9 -40 -16 -65 -7 -25 -14 -52 -16 -60 -23 -112 -69 -248 -97 -285 -43
-57 -102 -95 -148 -95 -63 0 -63 10 -3 85 81 101 151 212 170 272 28 87 -7
133 -101 133 -134 0 -279 -222 -285 -436 -2 -85 8 -126 41 -161 65 -70 237
-12 309 104 l24 38 6 -57 c11 -100 51 -133 132 -108 40 12 84 48 123 103 l20
28 1 -40 c2 -54 27 -89 68 -97 67 -12 125 25 188 119 27 42 31 40 41 -13 8
-47 54 -100 86 -102 54 -2 70 3 118 41 50 40 62 42 62 10 0 -25 47 -59 83 -59
68 0 140 68 201 188 45 89 48 102 27 102 -13 0 -25 -16 -40 -54 -31 -76 -71
-121 -99 -112 -22 7 -26 24 -22 91 1 30 8 57 70 289 19 74 27 121 21 125 -12
8 -117 5 -131 -4 -5 -3 -10 -13 -10 -21 0 -19 -7 -18 -37 6 -92 72 -244 -59
-312 -268 -56 -170 -107 -244 -146 -212 -9 8 -15 28 -15 54 1 51 113 491 126
491 5 0 23 6 41 14 35 14 60 47 73 92 9 31 9 31 -50 34 l-34 1 3 50 c2 43 -2
56 -24 83 -34 39 -64 56 -77 43 -5 -5 -14 -29 -19 -53 -24 -109 -29 -119 -63
-133 -38 -16 -73 -61 -82 -103 -6 -29 -5 -29 35 -27 34 1 41 -1 37 -15 -3 -9
-24 -90 -47 -181 -50 -202 -91 -313 -126 -340 -33 -26 -47 -25 -60 3 -19 42
-17 53 128 606 40 151 31 197 -48 243 l-30 17 -37 -147z m-268 -364 c18 -18
15 -44 -13 -101 -35 -73 -145 -204 -156 -186 -12 19 -11 84 2 139 23 102 124
191 167 148z m952 -15 c61 -78 -35 -303 -129 -303 -27 0 -34 5 -47 35 -29 70
8 197 75 258 45 41 74 44 101 10z"/>
<path d="M5989 5188 c-6 -24 -12 -47 -13 -53 -15 -66 -29 -95 -46 -95 -26 0
-77 -54 -85 -90 -9 -40 -5 -45 33 -44 17 1 32 -4 32 -9 0 -6 -25 -107 -57
-226 -46 -179 -56 -231 -57 -304 -1 -85 0 -90 27 -113 72 -61 173 -3 251 145
52 100 58 117 36 118 -12 1 -27 -18 -49 -67 -38 -80 -61 -105 -90 -95 -39 12
-32 71 35 331 29 117 54 214 54 218 0 3 11 6 24 6 32 0 75 36 92 76 23 55 20
62 -32 59 l-45 -2 4 43 c6 49 -11 89 -51 121 -38 32 -50 29 -63 -19z"/>
<path d="M1595 3990 c-93 -20 -141 -102 -116 -196 13 -48 41 -76 123 -124 72
-41 86 -67 57 -104 -11 -14 -29 -26 -40 -26 -29 0 -59 36 -59 70 0 29 -2 30
-45 30 l-45 0 0 -37 c2 -84 67 -153 144 -153 88 0 155 69 151 155 -3 59 -32
96 -113 142 -80 46 -103 82 -81 122 10 18 25 27 46 29 40 4 59 -22 58 -77 -1
-41 1 -43 45 -43 50 0 50 0 46 55 -6 87 -41 136 -112 156 -16 4 -42 5 -59 1z"/>
<path d="M1994 3982 c-20 -3 -20 -8 -20 -265 l1 -262 115 0 c63 -1 120 0 127
3 9 3 11 34 4 85 -1 4 -36 7 -79 7 l-78 0 1 65 0 65 65 1 c36 1 72 1 80 0 11
-1 15 9 15 41 0 51 -10 56 -97 52 -32 -1 -59 1 -59 4 -1 4 -2 31 -3 60 l-2 52
50 1 c114 2 110 0 109 39 0 19 -1 40 -2 45 -1 9 -175 15 -227 7z"/>
<path d="M2511 3980 c-5 -3 -13 -27 -17 -55 -4 -27 -9 -52 -9 -55 -1 -3 -5
-25 -9 -50 -5 -25 -10 -54 -12 -65 -2 -11 -13 -69 -24 -130 -11 -60 -22 -122
-25 -137 -3 -16 -1 -29 5 -29 71 -9 90 -2 90 36 0 18 7 21 48 21 49 0 62 -8
62 -41 0 -17 7 -20 45 -21 52 -1 51 -4 31 111 -24 131 -26 145 -47 265 -10 63
-21 124 -24 135 -3 17 -12 20 -55 20 -28 1 -55 -2 -59 -5z m82 -337 c2 -24 0
-43 -4 -44 -49 -6 -54 -3 -55 31 0 19 3 49 7 65 4 17 10 48 13 70 3 22 6 45 7
50 2 12 25 -115 32 -172z"/>
<path d="M2952 3970 c-44 -27 -72 -76 -72 -128 0 -72 30 -112 125 -168 80 -47
94 -68 67 -103 -10 -14 -28 -27 -40 -29 -29 -4 -62 32 -62 68 0 29 -2 30 -45
30 l-45 0 0 -38 c0 -80 68 -152 142 -152 83 0 147 60 152 142 5 69 -30 113
-127 163 -21 11 -47 28 -58 38 -39 36 -12 107 42 107 24 0 33 -6 43 -32 8 -18
12 -42 10 -55 -6 -33 48 -52 84 -29 17 10 5 103 -17 139 -41 66 -132 88 -199
47z"/>
<path d="M3470 3982 c-29 -13 -57 -37 -75 -66 -17 -25 -20 -51 -22 -185 -2
-172 9 -215 64 -255 40 -29 120 -32 161 -7 65 41 72 67 72 251 0 185 -8 211
-72 250 -33 20 -97 26 -128 12z m94 -104 c13 -18 16 -52 16 -160 0 -125 -2
-140 -20 -158 -24 -24 -53 -26 -74 -4 -19 18 -18 9 -20 164 -2 119 4 156 28
172 21 15 55 8 70 -14z"/>
<path d="M3891 3981 c-6 -4 -9 -104 -8 -265 l2 -259 31 -2 c54 -4 56 0 52 143
-2 72 -1 128 3 124 3 -4 31 -63 63 -132 32 -69 63 -128 69 -131 5 -4 17 -5 26
-4 9 2 21 4 28 4 17 1 16 518 -1 524 -6 2 -24 4 -41 3 l-30 -2 0 -141 c0 -78
-2 -139 -5 -137 -3 3 -32 66 -65 141 -55 126 -62 137 -87 138 -15 1 -31 -1
-37 -4z"/>
<path d="M4715 3971 c-44 -26 -67 -67 -69 -120 l-1 -46 44 0 c43 0 44 1 46 32
2 41 21 63 55 63 29 0 61 -35 56 -61 -6 -37 -19 -59 -34 -61 -9 0 -24 -1 -32
-2 -11 -1 -15 -13 -15 -46 0 -42 2 -45 30 -50 51 -9 72 -78 35 -118 -24 -25
-48 -28 -75 -8 -16 11 -21 27 -24 73 -1 8 -17 12 -47 11 l-45 -1 2 -36 c6 -88
67 -151 148 -151 115 0 182 122 131 238 -18 41 -19 47 -5 68 22 34 28 84 14
133 -24 86 -137 130 -214 82z"/>
</g>
</svg>
