<svg id="Vrstva_1" data-name="Vrstva 1" xmlns="http://www.w3.org/2000/svg" xmlns:xlink="http://www.w3.org/1999/xlink" viewBox="0 0 500 500"><defs><style>.cls-1{fill:none;}.cls-2{fill:#473c2c;}.cls-3{fill:#1a1918;}.cls-4{fill:#efefef;}.cls-5{clip-path:url(#clip-path);}.cls-6{fill:#bfbfbf;}.cls-7{fill:#a3a3a3;}</style><clipPath id="clip-path"><path class="cls-1" d="M412.21,109C490.06,198.6,480.55,334.33,391,412.2S165.64,480.54,87.8,391,19.46,165.66,109,87.82,334.36,19.45,412.21,109Z"/></clipPath></defs><circle class="cls-2" cx="250" cy="250" r="230.03"/><path class="cls-3" d="M166.29,55.73,250,250,55.71,333.7C9.49,226.41,59,102,166.29,55.73Z"/><path class="cls-3" d="M444.3,166.29,250,250,166.29,55.73C273.62,9.49,398.07,59,444.3,166.29Z"/><path class="cls-3" d="M250,250l83.7,194.28C226.39,490.5,101.94,441,55.71,333.7Z"/><path class="cls-3" d="M444.3,166.29C490.52,273.58,441,398,333.69,444.28L250,250Z"/><ellipse class="cls-4" cx="253.47" cy="246.97" rx="173.23" ry="173.29"/><path class="cls-3" d="M249.51,69.41c-93.81,0-170.66,73-178,165.75l95.71,39.94a49.82,49.82,0,0,1,28.45-8.87c.95,0,1.89,0,2.81.08L241.09,204v-.87c0-37.47,30.21-68,67.34-68s67.34,30.49,67.34,68-30.21,68-67.34,68l-1.53,0-60.71,43.7c0,.81.07,1.62.07,2.42,0,28.14-22.68,51-50.55,51a50.75,50.75,0,0,1-49.56-41L77.69,298.72c21.21,75.64,90.07,131.1,171.82,131.1,98.62,0,178.57-80.69,178.57-180.2S348.13,69.41,249.51,69.41Zm-66,273.43-21.94-9.15a37.74,37.74,0,0,0,69.14-1.85,38.35,38.35,0,0,0,.07-29.29,37.92,37.92,0,0,0-20.48-20.77,37.51,37.51,0,0,0-28-.42l22.66,9.46a28.26,28.26,0,0,1,15,36.85A27.83,27.83,0,0,1,183.46,342.84ZM353.3,203.17c0-25-20.13-45.29-44.86-45.29s-44.88,20.33-44.88,45.29,20.13,45.28,44.88,45.28S353.3,228.14,353.3,203.17Zm-78.5-.08a33.71,33.71,0,1,1,33.7,34A33.87,33.87,0,0,1,274.8,203.09Z"/><g class="cls-5"><path class="cls-4" d="M391.11,349.25c-4.63-21.67,9.55-56.56,28.78-69.61.94,1.58,1.93,3.14,2.79,4.76.61,1.12-.21,1.87-.95,2.55-1.92,1.73-3.88,3.44-5.8,5.17a44.21,44.21,0,0,0-10,13.39c-3.73,7.47-7,15.15-8.28,23.44-.57,3.72-.32,7.57-.37,11.35,0,2,.17,4.06.11,6.08a1.91,1.91,0,0,1-1,1.44C394.7,348.4,392.93,348.78,391.11,349.25Z"/><path class="cls-4" d="M109,349.21c-1.82-.45-3.4-.89-5-1.24a1.66,1.66,0,0,1-1.51-1.78c0-1.55.12-3.1.2-4.65.28-5.7.43-11.41-1.17-17-2.65-9.21-6.21-18-11.67-26-2.82-4.09-6.62-7.25-10.29-10.52-2.78-2.47-2.81-2.45-1.09-5.66.5-.94,1.06-1.84,1.67-2.9C91.35,288,98.73,299.13,103.7,312,108.34,323.93,111.07,336.19,109,349.21Z"/><path class="cls-4" d="M391,150.86c1.82.46,3.49.86,5.15,1.3,1.19.32,1.47,1,1.37,2.67-.34,5.43-.73,10.87.06,16.29.92,6.33,3.29,12.21,5.82,18,2.31,5.31,4.84,10.55,8.79,14.86,2.85,3.1,6.07,5.87,9.15,8.76,1.93,1.83,2,1.85.66,4.1l-2.14,3.69c-12.31-9.36-19.95-21.78-24.91-36.05C391.13,173.6,389.08,162.47,391,150.86Z"/><path class="cls-4" d="M279.42,420c9.12-12.14,21.27-19.69,35.16-24.71,12.22-4.41,28.54-6.28,34.53-4.09-.44,1.75-.84,3.5-1.33,5.23-.37,1.33-1.51,1.21-2.55,1.18-4.13-.14-8.27-.45-12.41-.41-5.64.05-10.92,1.92-16.13,3.88a92.47,92.47,0,0,0-16.31,7.8c-4.16,2.59-7.45,6.11-10.68,9.71q-1.54,1.74-3.07,3.5a1.92,1.92,0,0,1-2.65.5Z"/><path class="cls-4" d="M150.72,391c13.48-2,26.1.77,38.4,5.67,15.56,6.2,26.21,15.77,31.25,23.24-1.42.88-2.84,1.77-4.28,2.62a2.08,2.08,0,0,1-2.86-.62c-2.19-2.44-4.36-4.9-6.6-7.3a44.23,44.23,0,0,0-13.78-9.48C186,401.88,179,399,171.44,397.6a49.68,49.68,0,0,0-12-.34c-1.51.08-3,.24-4.52.36-2,.16-2.54-.25-3-2.16-.16-.71-.34-1.42-.53-2.13S151,391.93,150.72,391Z"/><path class="cls-4" d="M150.8,109.07c.47-1.89.8-3.63,1.38-5.28a2.22,2.22,0,0,1,1.57-1.18,16.27,16.27,0,0,1,3.88.11c10,1.27,19.5-.8,28.59-4.88,4.55-2,9-4.34,13.4-6.71a31.68,31.68,0,0,0,8.27-7c1.77-1.95,3.49-3.94,5.25-5.9,1.12-1.24,1.68-1.34,3.16-.54s2.69,1.53,4.21,2.4C213,90.23,203.25,97.23,192,102.17,178.84,107.91,165.29,111.22,150.8,109.07Z"/><path class="cls-4" d="M279.45,80.21c1.55-.93,2.92-1.73,4.27-2.57a2.12,2.12,0,0,1,3.06.57c2.13,2.42,4.3,4.83,6.5,7.19,3.92,4.21,8.74,7.12,13.87,9.57a106.56,106.56,0,0,0,18,6.81c5.55,1.51,11.19,1.34,16.84,1,1.5-.1,3-.2,4.51-.15a1.66,1.66,0,0,1,1.21.92c.57,1.79,1,3.63,1.48,5.58-12.07,1.73-23.54-.3-34.81-4.39C300.53,99.7,288.54,92.13,279.45,80.21Z"/><path class="cls-4" d="M92.1,208.75l-1.67,2.13c-.82-1.81-2.22-2.66-4-1.91a3.92,3.92,0,0,0-1.77,2.3c-.41,1.34.28,2.17,2.11,3.3-1.23,1.43-1.9,1.2-3.73-1.31a2.68,2.68,0,0,0,.46-.69.87.87,0,0,0-.09-.69,1,1,0,0,0-.63-.23c-.54-.06-1.08-.08-1.91-.15A2.6,2.6,0,0,0,81.4,214c1.08.87,2.13,1.77,3.26,2.73L83.29,218c-.33-1.41-.74-2.6-2.18-3a3.19,3.19,0,0,0-3.34,1.16c-.89-1-.92-1.67.06-2.63,1.31-1.25,2.66-2.47,4.07-3.61,7.85-6.34,12.48-14.82,16.07-24,2.13-5.44,4.22-10.92,4.65-16.77.3-4,0-8.1-.07-12.15,0-1.08,0-2.16,0-3.24a1.47,1.47,0,0,1,1.21-1.6c1.66-.45,3.33-.87,5.16-1.34.1.49.24,1,.3,1.45,1.48,11.57-.5,22.69-4.55,33.5A99.82,99.82,0,0,1,94,206.29c-.93,1.39-2.14,1.12-3.32,1.38-.12,0-.44-.29-.41-.35a2.13,2.13,0,0,1,.41-.55c.22-.29.42-.59.64-.88-.43-.06-.92-.28-1.26-.15a1.64,1.64,0,0,0-1,2.12A1.54,1.54,0,0,0,91,209C91.26,209,91.54,208.88,92.1,208.75Z"/><path class="cls-4" d="M102.13,356.68c2.14.44,4,.79,5.91,1.26.3.08.6.73.65,1.14.35,3.08.38,6.22,1,9.24a29.29,29.29,0,0,0,24.65,22.52c2.18.26,4.39.34,6.58.43.81,0,1.11.29,1.24,1.1.29,1.77.72,3.52,1.13,5.48-11.09,1.3-20.57-2.09-28.55-9.31C105.43,380.12,100.81,369.61,102.13,356.68Z"/><path class="cls-4" d="M430,220.89c10,8.23,14.23,18.82,13.61,31.37a35.71,35.71,0,0,1-13.6,27c-1.15-1.79-2.27-3.43-3.24-5.14-.17-.3.13-1,.41-1.39,2.09-2.69,4.56-5.13,6.29-8a29.32,29.32,0,0,0-3.07-33.6c-1.12-1.31-2.33-2.54-3.45-3.85-.23-.27-.44-.86-.31-1.08C427.63,224.41,428.75,222.74,430,220.89Z"/><path class="cls-4" d="M397.7,356.7c3.46,23.84-19.78,44.37-41,41,.3-1.49.59-3,.9-4.48.42-1.95.42-1.95,2.48-2,4.15-.1,8.34-.34,12.17-2.06,11.3-5.11,18-13.61,18.76-26.27.08-1.33.1-2.67.23-4,0-.34.29-.9.54-1C393.75,357.48,395.73,357.1,397.7,356.7Z"/><path class="cls-4" d="M220.76,430.08c1.85-1.22,3.48-2.35,5.18-3.35.3-.17,1,.08,1.36.36,2.13,1.75,4.13,3.66,6.32,5.33a25.3,25.3,0,0,0,13.22,4.76,29.27,29.27,0,0,0,24.43-8.79c2.15-2.13,2.2-2.08,4.76-.41l3.07,2a35.51,35.51,0,0,1-26.74,13.6C239.72,444.26,229.16,439.94,220.76,430.08Z"/><path class="cls-4" d="M102.11,143.41c-1-11.3,2.13-21.09,9.9-29.19,8.44-8.8,18.64-13.37,31.29-12-.45,2.12-.81,4.1-1.32,6-.08.27-.83.47-1.29.53-3.12.34-6.32.31-9.36,1a28.65,28.65,0,0,0-17.16,11.84c-4,5.54-5.39,11.74-5.42,18.41,0,2-.1,2-2,2.41Z"/><path class="cls-4" d="M397.68,143.37c-2-.42-3.95-.78-5.86-1.27-.28-.07-.52-.76-.57-1.18-.37-3.21-.67-6.42-1-9.63a10.49,10.49,0,0,0-.43-1.69c.85-.12,1.64-.19,2.4-.37.17,0,.41-.59.34-.68a1.17,1.17,0,0,0-.79-.43,2.24,2.24,0,0,1-2.28-2.77c.06-.2-.6-.84-.64-.82-1,.66-1.3-.33-1.69-.83a60,60,0,0,0-4.1-5.47c-5.42-5.58-12-8.94-19.88-9.24-1.42,0-2.84-.1-4.26-.24-.35,0-.91-.32-1-.59-.46-1.92-.81-3.86-1.2-5.79,13.8-2.52,30,6.48,36.36,19-2.29,1.24-3,2.66-2.18,4.38s2.41,1.93,4.71.88C397.61,129.94,398.72,138.7,397.68,143.37Z"/><path class="cls-4" d="M226.48,73.72l-5.58-3.61a33.86,33.86,0,0,1,16-11.54,39.17,39.17,0,0,1,28.19.8c.84.33,1.71.64,1.47,1.83,3.81-.36,5.84,2.51,8.33,4.42,1.57,1.2,2.92,2.66,4.57,4.19l-6.05,3.94c-3.7-3.54-7.41-7.08-12.47-9,1.19-.08,2.29.13,3-.3a3.78,3.78,0,0,0,1.57-2.29A2.72,2.72,0,0,0,262.92,59c-1.89-.08-2.87,1.16-3.06,3.72a19.49,19.49,0,0,1-3.26.55c-1.37,0-2.73-.37-4.1-.45-7.86-.47-15,1.37-21.16,6.55C229.7,70.77,228.13,72.25,226.48,73.72Z"/><path class="cls-4" d="M62.51,229.23l1.26-2.07c.9.89,1.77,1.67,2.54,2.55s1.61,1.85,3.15,1.23c-1.11,1.69-2.24,3.19-3.15,4.81a29.48,29.48,0,0,0,3.16,33.07c1.14,1.35,2.34,2.65,3.55,3.94.42.46.67.83.25,1.45-1.06,1.57-2.07,3.17-3.23,5-1-.86-2-1.64-2.91-2.53a36,36,0,0,1-10.75-25.3,39,39,0,0,1,1.12-11c.17-.69.37-1.18,1.25-1.16a2.47,2.47,0,0,0,2.47-1.74,2.93,2.93,0,0,0-.56-3.14c-.25-.28-.49-.58-.61-.73,1,0,1.83,0,2.7,0a2.35,2.35,0,0,1,.76.31c-.17.21-.35.42-.5.63s-.4.6-.59.9c.37.09.79.33,1.12.24a1.75,1.75,0,0,0-.67-3.43c-.46.05-.91.14-1.55.23.15-.39.17-.73.31-.79.8-.34,1.37-.68.43-1.53-.06-.06.31-.6.47-.91a3.39,3.39,0,0,0,.35,1c.8,1,1.62,2,2.51,2.93.23.24.75.2,1.14.3,0-.41.14-.94-.06-1.2-.79-1.06-1.72-2-2.56-3.06C63.37,228.47,62.94,228.6,62.51,229.23Z"/><path class="cls-4" d="M84.54,299.63A29.51,29.51,0,0,1,92,310.86c.83,2.42.23,3.89-2.16,4.86a19.06,19.06,0,0,1-10.57.87c-5.29-.92-10.14-2.85-13.8-7s-4.14-8.76-2.57-13.81a2.77,2.77,0,0,1,.22-.46c0-.07.12-.11.26-.24,1.7,1.28,3.44,2.53,5.1,3.87a2,2,0,0,1,.58,1.38c.15,4.15,2.67,6.58,6.18,8a40,40,0,0,0,7.26,1.72,1.78,1.78,0,0,0,1.53-.62,2,2,0,0,0-.14-1.67,5.66,5.66,0,0,0-1.52-1.9c-.85-.64-.73-1.2-.28-1.95C82.9,302.55,83.67,301.15,84.54,299.63Z"/><path class="cls-4" d="M436.68,205c-1.8-1.37-3.54-2.63-5.2-4a2.11,2.11,0,0,1-.57-1.38c-.22-4.32-2.9-6.72-6.58-8.11a34.94,34.94,0,0,0-6.52-1.53,2.17,2.17,0,0,0-1.89.64c-.25.46.17,1.33.37,2a2.56,2.56,0,0,0,.54.72c1.5,1.84,1.51,1.85.37,3.91-.56,1-1.16,2-1.81,3.13-3.51-3.58-6.37-7.41-7.71-12.18-.45-1.61.4-3,2.17-3.79a18.69,18.69,0,0,1,10.56-1c5.4.89,10.36,2.77,14.08,7C438,194.45,438.88,199.49,436.68,205Z"/><path class="cls-4" d="M413.9,149.88c5,2.31,8.15,5.86,8.6,11.24.63,7.61-2.73,13.69-8,18.82a19.63,19.63,0,0,1-4.17,3c-2.6,1.43-4.37.81-5.77-1.79a24.42,24.42,0,0,1-2.4-9.71c-.08-1.06-.17-2.12-.28-3.4,2,.55,3.76,1,5.5,1.58.29.1.51.75.57,1.17a17.44,17.44,0,0,0,.17,2.31,2.53,2.53,0,0,0,1.14,1.55,1.86,1.86,0,0,0,1.63-.62c2.36-3,4.53-6.11,4.86-10.08a7.1,7.1,0,0,0-1.91-5.83,2.83,2.83,0,0,1-.84-2.59C413.28,153.72,413.57,151.9,413.9,149.88Z"/><path class="cls-4" d="M168.06,98.09c.53-1.93,1-3.67,1.5-5.38.09-.28.65-.52,1-.57A19.59,19.59,0,0,0,173,92a2.75,2.75,0,0,0,1.58-1.13c.18-.33-.18-1.2-.56-1.53-3.14-2.73-6.55-4.91-10.93-5a6.64,6.64,0,0,0-5,1.84,2.92,2.92,0,0,1-2.72.83c-1.82-.31-3.66-.55-5.65-.84a13,13,0,0,1,3.11-4.76c3.68-3.66,8.2-4.63,13.13-3.61A24.37,24.37,0,0,1,182.44,89a10.42,10.42,0,0,1,.61,1.14c1.08,2.29.6,4-1.61,5.25-3,1.65-6.36,2.11-9.71,2.49C170.59,98,169.43,98,168.06,98.09Z"/><path class="cls-4" d="M98.09,332c-2-.56-3.78-1-5.53-1.59-.27-.09-.47-.68-.52-1.06a19.65,19.65,0,0,0-.21-2.57,2.26,2.26,0,0,0-1.12-1.42,1.74,1.74,0,0,0-1.54.57c-2.48,3.13-4.77,6.36-4.94,10.57A7,7,0,0,0,86.16,342a2.87,2.87,0,0,1,.82,2.83c-.37,1.72-.6,3.47-.92,5.35a13.49,13.49,0,0,1-7.86-7.93c-1.53-4.1-1-8.16.56-12.12a25.46,25.46,0,0,1,8.82-11.72,13.28,13.28,0,0,1,2.93-1.61c2.07-.82,3.57-.21,4.69,1.72,1.77,3.07,2.3,6.47,2.61,9.92C97.91,329.54,98,330.68,98.09,332Z"/><path class="cls-4" d="M200.41,84.63c-3.42,3.26-6.94,6.06-11.32,7.53-2.3.78-4-.06-4.82-2.36a20.65,20.65,0,0,1-.56-11.6c1.08-4.87,2.91-9.42,6.81-12.77a13.23,13.23,0,0,1,14.38-2.08c-1.29,1.74-2.55,3.47-3.86,5.15a1.45,1.45,0,0,1-1,.52c-4.44.1-7,2.77-8.39,6.56A39.32,39.32,0,0,0,190,82.33a2.06,2.06,0,0,0,.6,1.76c.53.23,1.34-.13,2-.29.19,0,.34-.25.5-.39,2.08-1.74,2.08-1.74,4.49-.35Z"/><path class="cls-4" d="M295.13,63.43c4.93-2.55,11.31-1.3,15.39,3,3.53,3.69,5.23,8.25,6,13.2a22.38,22.38,0,0,1-.3,8.74,9.83,9.83,0,0,1-.64,1.82,3.39,3.39,0,0,1-4.45,2,26.18,26.18,0,0,1-8.8-5.07c-.91-.72-1.74-1.53-2.84-2.51,1.81-1,3.5-2,5.23-2.88.17-.09.62.19.85.39a17.51,17.51,0,0,0,1.81,1.65,2.39,2.39,0,0,0,1.75.42,1.71,1.71,0,0,0,.83-1.4c-.32-4.84-1.29-9.48-5.6-12.47-1.06-.74-2.59-.78-3.87-1.23a4.58,4.58,0,0,1-2-1.05C297.33,66.62,296.29,65,295.13,63.43Z"/><path class="cls-4" d="M168,401.93c4.19.45,8.17.49,11.9,2,.28.12.56.23.83.37,2.86,1.48,3.54,3.29,2.06,6.14-2.57,4.93-6.79,8-11.76,10.26-4.05,1.8-8.23,2.57-12.59,1.31-4.19-1.21-6.89-4-8.59-8.12,2.09-.31,4.08-.64,6.07-.86a2,2,0,0,1,1.43.38c3.81,3.37,7.86,2.73,11.91.67A34.35,34.35,0,0,0,174,411c1.15-.85,1.06-1.95-.25-2.48a6.07,6.07,0,0,0-2.64-.39c-1.15.07-1.6-.38-1.82-1.45C169,405.13,168.49,403.65,168,401.93Z"/><path class="cls-4" d="M204.84,436.67a13,13,0,0,1-15.3-2.95c-5.72-6.38-7.41-13.93-5.72-22.27a7.62,7.62,0,0,1,.58-1.57,3.35,3.35,0,0,1,4.33-2c3.65,1,6.64,3.23,9.51,5.61.69.58,1.35,1.2,2.21,2-1.78,1-3.46,2-5.19,2.91-.17.09-.62-.19-.87-.39-.65-.56-1.23-1.21-1.9-1.75-1.19-.95-2.27-.52-2.52,1-.68,3.89,2.53,10.94,6,12.81a27.87,27.87,0,0,0,3.43,1,5.3,5.3,0,0,1,2.22,1.29C202.76,433.6,203.73,435.13,204.84,436.67Z"/><path class="cls-4" d="M415.36,299.64c1,1.59,1.92,3,2.73,4.55a1.59,1.59,0,0,1-.27,1.3c-.56.81-1.38,1.46-1.86,2.3-.71,1.22,0,2.5,1.29,2.35,4.27-.49,8.48-1.25,11.62-4.63a7.6,7.6,0,0,0,2.06-4.9,2.36,2.36,0,0,1,.63-1.6c1.58-1.32,3.28-2.51,5.23-4a36.91,36.91,0,0,1,1,4.34c.62,5.66-1.92,9.91-6.41,13A24.42,24.42,0,0,1,412,316.31l-.25-.05c-4.07-1-5.16-3.23-3.33-7A34,34,0,0,1,415.36,299.64Z"/><path class="cls-4" d="M331.94,98.14c-4.4-.38-8.55-.49-12.38-2.28-3.34-1.55-4-3.37-2.22-6.63a21.63,21.63,0,0,1,8.93-8.57,21.84,21.84,0,0,1,12.33-3.19c5.08.32,10,4,11.41,8.69-2.05.31-4.08.64-6.12.88a1.84,1.84,0,0,1-1.3-.4c-3.91-3.45-8-2.71-12.13-.55A33.77,33.77,0,0,0,326,89.15c-1.18.88-1.05,2,.35,2.54A8.09,8.09,0,0,0,329,92c.89,0,1.43.23,1.64,1.21C331,94.79,331.45,96.35,331.94,98.14Z"/><path class="cls-4" d="M84.71,200.64c-1.09-1.8-2-3.28-2.88-4.82a1.48,1.48,0,0,1,.27-1.21,26.33,26.33,0,0,0,1.8-2.18,2.1,2.1,0,0,0,.12-1.79,2,2,0,0,0-1.65-.67c-3,.41-6,.89-8.64,2.48s-4.59,3.87-4.72,7.24a2,2,0,0,1-.58,1.37c-1.63,1.32-3.33,2.55-5.15,3.91-1.55-4.05-1.79-7.92.27-11.72,2.38-4.38,6.3-6.88,10.85-8.5a23.91,23.91,0,0,1,13.5-1,12.57,12.57,0,0,1,1.24.34c3.08,1.11,4,2.95,2.68,6a29,29,0,0,1-2.68,4.85C87.83,196.82,86.31,198.59,84.71,200.64Z"/><path class="cls-4" d="M331.93,401.94c-.55,2-1,3.7-1.52,5.37-.1.31-.68.6-1.08.66-.8.13-1.65,0-2.45.14-1.6.26-2.18,1.49-1.08,2.51,3.33,3.1,7.09,5.46,11.87,5.05a8.58,8.58,0,0,0,3.94-1.66,4,4,0,0,1,3.21-.88c1.72.3,3.47.54,5.64.87a42.46,42.46,0,0,1-3.29,4.56c-3.62,3.82-8.21,4.78-13.2,3.75A24.23,24.23,0,0,1,317.49,411a10.53,10.53,0,0,1-.72-1.37c-.86-2.05-.49-3.86,1.52-4.72a47.47,47.47,0,0,1,8-2.43A42.62,42.62,0,0,1,331.93,401.94Z"/><path class="cls-4" d="M295.11,436.72c1.24-1.7,2.39-3.36,3.63-5a1.94,1.94,0,0,1,1.31-.7c4.41-.21,6.91-2.86,8.31-6.68a40.63,40.63,0,0,0,1.59-6.64,2,2,0,0,0-.64-1.77c-.44-.25-1.26.11-1.9.23-.16,0-.28.19-.42.3-.77.61-1.5,1.64-2.31,1.7s-1.73-.83-2.59-1.32l-2.52-1.44a33.11,33.11,0,0,1,10.34-7.22c3.17-1.35,5.07-.47,6,2.82a22.38,22.38,0,0,1-.32,13.26c-1.18,3.79-2.83,7.33-5.85,10.05-4.06,3.67-8.74,4.37-13.87,2.78A5.17,5.17,0,0,1,295.11,436.72Z"/><path class="cls-4" d="M413.88,350.09c-.29-1.86-.65-3.64-.83-5.44a3.11,3.11,0,0,1,.45-2.15c2.73-3,2.75-6.44,1.35-9.91a32.18,32.18,0,0,0-3.41-5.9,3,3,0,0,0-2.2-1.21c-1.1.08-1.21,1.27-1.32,2.23s.05,2.12-.46,2.68-1.74.55-2.65.8l-2.84.75c.06-1.07.1-2,.16-2.9a28.21,28.21,0,0,1,2.18-9.53c1.37-3.14,3.14-3.85,6.14-2.27,5.18,2.73,8.36,7.2,10.53,12.48a18.78,18.78,0,0,1,1.43,10C421.66,344.8,418.62,348.06,413.88,350.09Z"/><path class="cls-4" d="M86.1,150.06c.31,2,.67,3.92.86,5.85a2.5,2.5,0,0,1-.55,1.75c-2.26,2.5-2.55,5.39-1.77,8.48a18.91,18.91,0,0,0,4,7.35,2.9,2.9,0,0,0,2.24,1c.5-.09.81-1.3,1.17-2a2.37,2.37,0,0,0,.09-.76c.14-2.25.14-2.24,2.29-2.69,1.13-.25,2.25-.54,3.61-.86a21.38,21.38,0,0,1-.2,3c-.6,3-1.27,6-2,8.93a5.49,5.49,0,0,1-.66,1.41c-1.21,2.16-2.84,2.67-5.1,1.64a20.09,20.09,0,0,1-8.5-7.75c-2.68-4.17-4.45-8.65-4.16-13.75A12.8,12.8,0,0,1,86.1,150.06Z"/><path class="cls-4" d="M158.06,403.51l1.92,7.12c-5.95,1-11.8,2.29-17.74.75a14.14,14.14,0,0,1-9.34-7.94c-.62-1.26-1.1-2.59-1.76-4.18,2.42.25,4.51.39,6.58.71.49.08,1,.68,1.31,1.15a7.45,7.45,0,0,0,6.63,3.37c3.47-.12,6.94-.55,10.41-.83C156.7,403.6,157.34,403.56,158.06,403.51Z"/><path class="cls-4" d="M368.86,100.82c-2.44-.24-4.5-.39-6.54-.69a2.29,2.29,0,0,1-1.26-1,7.91,7.91,0,0,0-7.34-3.58c-3.13.12-6.26.53-9.39.82-.17,0-.34.07-.51.09-1.87.23-1.87.23-2.35-1.55s-1-3.56-1.48-5.46c5.56-1,11-2.08,16.62-1a14.24,14.24,0,0,1,10.47,8.24C367.68,97.9,368.16,99.19,368.86,100.82Z"/><path class="cls-4" d="M399.21,368.68c.22-2.2.37-4.21.64-6.21a2.08,2.08,0,0,1,.91-1.18,8.24,8.24,0,0,0,3.69-7.68c-.14-3.48-.6-6.95-.92-10.42,0-.39-.06-.77-.09-1.19l7.14-2c.32,2.14.68,4.16.93,6.2.5,4.08.88,8.16-.39,12.18C409.31,364.13,404.91,367,399.21,368.68Z"/><path class="cls-4" d="M293.49,423.52l6.42,3.72c-3.15,4.43-6.22,8.81-10.55,12.07-4.16,3.13-8.76,3.6-13.61,2-1.35-.44-2.63-1-4.29-1.7,1.89-1.54,3.5-2.93,5.18-4.21a2,2,0,0,1,1.49-.17c3.26.81,5.79-.51,7.87-2.79,2.32-2.54,4.45-5.26,6.67-7.9C292.94,424.21,293.2,423.88,293.49,423.52Z"/><path class="cls-4" d="M100.73,131.58c-.19,2-.34,4-.61,5.93a1.93,1.93,0,0,1-.83,1.22,8,8,0,0,0-3.75,7.38c.07,3.48.46,7,.86,10.42.14,1.21,0,1.76-1.31,2-1.89.36-3.72,1-5.71,1.58-.86-6.2-2.32-12.23-.55-18.4C90.37,136.32,95.53,132.59,100.73,131.58Z"/><path class="cls-4" d="M228.33,439.41c-6.63,3.79-13.06,4-18.55-.83-2.79-2.45-5.05-5.5-7.51-8.31-.79-.9-1.46-1.91-2.29-3l6.42-3.67c1.28,1.57,2.49,3.19,3.82,4.69,1.63,1.83,3.27,3.66,5.07,5.32a7.38,7.38,0,0,0,6.51,1.72,3.15,3.15,0,0,1,2.15.45C225.44,436.84,226.8,438.11,228.33,439.41Z"/><path class="cls-4" d="M131.43,100.76c2.39-8.64,7.43-12.34,15-12.56A78.75,78.75,0,0,1,157.4,89c2.62.3,2.59.43,1.86,3a24.85,24.85,0,0,0-.73,3.27c-.15,1.09-.71,1.31-1.69,1.17a65.12,65.12,0,0,0-6.66-.83,35.61,35.61,0,0,0-6.69.26,7.07,7.07,0,0,0-4.58,3.1,3.17,3.17,0,0,1-1.83,1.18C135.26,100.52,133.4,100.59,131.43,100.76Z"/><path class="cls-4" d="M206.49,76.56l-6.43-3.72c.67-.94,1.25-1.88,2-2.72a102.39,102.39,0,0,1,7.06-8.05c5.74-5.44,12.07-5.13,18.76-1.79a2.84,2.84,0,0,1,.44.36c-1.62,1.36-3.15,2.72-4.78,4a2.32,2.32,0,0,1-1.72.26c-3.22-.79-5.72.51-7.76,2.74-2.36,2.56-4.51,5.32-6.75,8Z"/><path class="cls-4" d="M271.61,60.64c7.16-3.88,13.6-4.06,19.6,1.72,3.23,3.11,5.94,6.78,9,10.32l-6.62,3.81c-1.9-2.32-3.72-4.67-5.69-6.89A29.93,29.93,0,0,0,284,66a7.06,7.06,0,0,0-5.77-1.25,3.36,3.36,0,0,1-2.27-.47C274.48,63.23,273.14,61.94,271.61,60.64Z"/><path class="cls-4" d="M439.42,228.4c-1.41-1.69-2.71-3.14-3.87-4.68a2.35,2.35,0,0,1-.31-1.69,8.22,8.22,0,0,0-2.76-7.95c-2.59-2.39-5.34-4.62-8.07-6.87-.74-.61-.9-1-.3-1.88,1.13-1.67,2.08-3.46,3.2-5.39,4.61,4.06,10.1,7,13.1,12.58C443.32,217.94,442.23,223.06,439.42,228.4Z"/><path class="cls-4" d="M368.51,399.3c-1.65,7.57-7.15,12.4-14.63,12.55a90,90,0,0,1-11.45-.83c-2.49-.27-2.46-.4-1.76-2.91a21.76,21.76,0,0,0,.74-3.27c.15-1.23.72-1.38,1.83-1.26,3.51.38,7,.78,10.54.92a7.94,7.94,0,0,0,7.4-3.68,2.18,2.18,0,0,1,1.33-.92C364.46,399.63,366.43,399.5,368.51,399.3Z"/><path class="cls-4" d="M427.24,300c-1.22-2-2.36-3.85-3.4-5.73-.14-.25.14-.95.43-1.2,2.48-2.14,5.06-4.17,7.51-6.33,2.76-2.43,4.27-5.38,3.43-9.2a1.24,1.24,0,0,1,.19-1c1.28-1.61,2.61-3.18,4-4.81,3.39,5.69,4.05,11.91.1,17.23a49.55,49.55,0,0,1-6.56,6.72C431.19,297.26,429.21,298.51,427.24,300Z"/><path class="cls-4" d="M72.67,300.14c-5-4.32-10.85-7.44-13.7-13.72-2.16-4.75-.92-11,1.72-14.56,1.28,1.53,2.59,3,3.79,4.57a2.14,2.14,0,0,1,.29,1.57A8,8,0,0,0,67.43,286c2.57,2.41,5.33,4.63,8.06,6.87.78.64,1,1,.34,2C74.7,296.44,73.77,298.24,72.67,300.14Z"/><path class="cls-4" d="M89.36,340l7.16,2c-.13,1-.31,1.95-.38,2.92-.24,3-.57,6-.62,9a8.32,8.32,0,0,0,3.81,7.5,2.27,2.27,0,0,1,.94,1.43c.23,1.87.3,3.76.43,5.69-7.21-1.77-11.55-6.35-12.41-12.72-.61-4.43.11-8.76.67-13.11C89.07,341.85,89.21,341,89.36,340Z"/><path class="cls-4" d="M72.73,200.14c1.2,2,2.37,3.82,3.43,5.72.14.25-.17.94-.46,1.2-2.67,2.31-5.47,4.48-8.06,6.87a8.5,8.5,0,0,0-2.9,8.5,1.88,1.88,0,0,1-.4,1.4c-.93,1.1-2,2.09-3,3.16a9.16,9.16,0,0,0-.84,1.36,20.32,20.32,0,0,1-2.55-7A14.3,14.3,0,0,1,61.24,210C64.4,206,68.59,203.14,72.73,200.14Z"/><path class="cls-4" d="M399.28,131.55c7,1.74,11.44,6.15,12.37,12.55a40.82,40.82,0,0,1-.4,11.47c-.2,1.48-.43,3-.65,4.5l-7.11-2c0-.53.09-1,.13-1.52.29-3.39.7-6.78.83-10.18a8.38,8.38,0,0,0-3.84-7.76,2.68,2.68,0,0,1-1-1.7C399.41,135.2,399.39,133.43,399.28,131.55Z"/><path class="cls-4" d="M250,78.39c2.45-2.1,4.76-4.1,7.12-6a17.23,17.23,0,0,1,2.06-1.18,1.81,1.81,0,0,0,.73-.66c1.11-2.71,2.8-3.26,5.2-1.67,2.64,1.77,2.67,2.12.24,4.11-3.66,3-7.35,6-11,9a.83.83,0,0,1-1.31,0c-.93-.87-1.92-1.69-2.93-2.57-1,.85-2,1.57-2.84,2.4-.56.55-.94.66-1.61.11-4-3.36-8.14-6.66-12.22-10-.71-.58-.89-1.1,0-1.71.67-.46,1.24-1.07,1.9-1.55,1.44-1.06,2.45-.89,3.79.3C242.64,72.08,246.27,75.19,250,78.39Z"/><path class="cls-4" d="M364.37,387.36c.5-5.19,1-10.39,1.53-15.58a1.15,1.15,0,0,1,.79-.72c1.3-.24,3,.08,3.82-.65s.45-2.43.51-3.71c0-.78.48-.93,1.08-1,5.11-.45,10.22-.91,15.33-1.34,1.48-.12,1.78.22,1.58,1.66,0,.13-.06.25-.08.38-.73,3.91-.73,3.8-4.72,3.92-2.88.08-5.75.52-8.63.78-1.07.1-2.15.19-3.22.21-.77,0-1,.33-1.09,1.08-.31,3.87-.69,7.73-1,11.6-.05.64.11,1.29.11,1.93a2.36,2.36,0,0,1-2.19,2.71,19.53,19.53,0,0,1-2.95.39C364,389.08,364.36,388.05,364.37,387.36Z"/><path class="cls-4" d="M78.36,250.07c-3.33-3.85-6.54-7.56-9.78-11.26a2.2,2.2,0,0,1-.39-2.83,17.84,17.84,0,0,1,1.65-2.3c1-1.14,1.25-1.1,2.19.06,2,2.55,4.09,5.12,6.16,7.66,1.17,1.44,2.38,2.85,3.61,4.24.54.61.5,1-.07,1.63-2.57,2.68-2.58,2.73-.14,5.5a1.33,1.33,0,0,1,0,2.08q-4.47,5.37-8.88,10.78c-1.54,1.89-1.86,1.92-3.44.05a9.34,9.34,0,0,1-.87-1.12,2.48,2.48,0,0,1,.34-3.49C72,257.45,75.1,253.81,78.36,250.07Z"/><path class="cls-4" d="M134,371.17c.58,5.52,1.17,10.87,1.71,16.23.15,1.56-.2,1.83-1.75,1.64l-1.15-.17c-2.69-.47-3-1.06-3.1-3.79-.11-3.22-.51-6.44-.77-9.66a24.41,24.41,0,0,1-.16-2.83c0-1-.41-1.21-1.31-1.27-4.48-.28-8.94-.63-13.42-1-1.86-.14-2.39-.63-2.7-2.48-.09-.51-.15-1-.22-1.53-.24-2,0-2.21,2-2,5,.53,9.94,1.06,14.91,1.53.77.08.93.38,1,1,0,.95.13,1.9.15,2.84,0,.74.29,1.08,1.08,1.11C131.46,370.92,132.69,371.07,134,371.17Z"/><path class="cls-4" d="M421.69,250c3,3.52,5.82,7,8.83,10.4,1.92,2.14,2.09,2.86.31,5.18-.13.18-.26.34-.4.51-1.24,1.49-1.52,1.47-2.72,0-3.13-3.85-6.25-7.7-9.44-11.5-.66-.78-.57-1.22.1-1.91,2.53-2.55,2.56-2.62.13-5.21-.91-1-.73-1.55,0-2.46q4.31-5.08,8.46-10.28c1.8-2.24,2.06-2.3,3.84-.12s1.59,3-.29,5.06C427.51,243,424.66,246.52,421.69,250Z"/><path class="cls-4" d="M115.83,129.8c2.39-.24,5.52-.56,8.65-.86,1.07-.1,2.16-.07,3.22-.24a1.4,1.4,0,0,0,.93-.9c.37-4.5.7-9,1-13.52.1-1.71.65-2.57,2.34-2.87.8-.15,1.63-.15,2.43-.28,1.09-.18,1.42.33,1.32,1.3-.29,2.66-.6,5.31-.87,8s-.5,5.07-.68,7.6c0,.78-.35,1.06-1.09,1.09a19.49,19.49,0,0,0-3,.25,1.42,1.42,0,0,0-.89.9,17.23,17.23,0,0,0-.26,3c0,.75-.28,1.09-1,1.16-5.11.43-10.22.9-15.33,1.33-1.57.13-1.82-.18-1.58-1.75.06-.42.15-.84.23-1.27C111.76,130,112.25,129.58,115.83,129.8Z"/><path class="cls-4" d="M213.81,409.89c3.62-1.66,7.05-3.05,10.89-2.74a13.25,13.25,0,0,1,7.21,3.23c3.45,2.79,6.06,6.32,8.78,9.88l-5.14,4.55c-.84-1-1.61-2-2.37-3a59.87,59.87,0,0,0-4.25-5.36,8.17,8.17,0,0,0-8.66-2.26,2.71,2.71,0,0,1-3.27-1C216.07,412.05,214.94,411.05,213.81,409.89Z"/><path class="cls-4" d="M259.27,79.84l5.14-4.58,2.43,3.06a62.22,62.22,0,0,0,4.47,5.49,8,8,0,0,0,8.22,2.12A2.87,2.87,0,0,1,283,87a39,39,0,0,0,3.12,3.25c-4.11,1.85-8,3.53-12.4,2.41a15.23,15.23,0,0,1-4.85-2.3C265,87.56,262.23,83.64,259.27,79.84Z"/><path class="cls-4" d="M409.73,286.08c-1.9-4.29-3.66-8.43-2.11-13a17.63,17.63,0,0,1,2.83-5c2.7-3.46,6.28-6,9.78-8.78l4.42,5.26c-1.58,1.21-3.11,2.37-4.62,3.56-1.16.9-2.35,1.76-3.42,2.76a8.63,8.63,0,0,0-2.52,9,2.79,2.79,0,0,1-1,3.3C412,284,411,285,409.73,286.08Z"/><path class="cls-4" d="M286,409.92c-1.26,1.37-2.36,2.71-3.63,3.85a2.53,2.53,0,0,1-2.07.51,9.76,9.76,0,0,0-11.21,4.28c-1.19,1.84-2.63,3.51-4,5.28-.43.57-.87.81-1.49.27-1.42-1.25-2.85-2.49-4.41-3.85,1-1.27,2-2.59,3.05-3.79,1.79-2,3.56-4,5.53-5.78,4.65-4.24,9.95-4.39,15.53-2.1.72.3,1.42.63,2.12,1A4.43,4.43,0,0,1,286,409.92Z"/><path class="cls-4" d="M90.23,214c2.25,4.95,4,9.81,1.32,15a17.72,17.72,0,0,1-3.29,4.44c-2.66,2.57-5.52,4.93-8.4,7.47-1.49-1.74-2.84-3.29-4.11-4.9-.13-.17.13-.88.4-1.09,1.75-1.39,3.56-2.71,5.35-4.06,2.81-2.12,4.87-4.66,4.71-8.43a8.36,8.36,0,0,0-.36-2.29,2.59,2.59,0,0,1,1-3.17C88,216.08,89,215.1,90.23,214Z"/><path class="cls-4" d="M111.32,162.31c0-1.84-.09-3.69.06-5.52,0-.55.67-1.16,1.18-1.53,2.42-1.72,4.58-3.67,4.9-6.81a22.94,22.94,0,0,0-.29-4.88c-.25-2.18-.62-4.34-1-6.73,2.23-.2,4.32-.41,6.4-.55a.91.91,0,0,1,.64.62c.31,5.14,1.43,10.28.05,15.43a12.23,12.23,0,0,1-5.93,7.53c-1.77,1-3.7,1.81-5.55,2.71Z"/><path class="cls-4" d="M111.36,337.38c5,1.91,9.43,3.93,11.45,9a21.87,21.87,0,0,1,1.06,9.7c-.14,2.19-.48,4.37-.65,6.57-.07.86-.31,1.24-1.25,1.13-1.83-.21-3.68-.33-5.71-.51.24-1.83.46-3.52.69-5.2.2-1.41.51-2.81.6-4.23a9.25,9.25,0,0,0-4.85-8.93,2.43,2.43,0,0,1-1.36-2.5C111.44,340.83,111.36,339.23,111.36,337.38Z"/><path class="cls-4" d="M376.74,363.88c-.25-5.28-1.4-10.39-.23-15.56a11.91,11.91,0,0,1,5.69-7.84c1.88-1.12,3.9-2,6.16-3.14.09,1.26.06,2.18.22,3.07a4.84,4.84,0,0,1-2.43,5.48c-3.16,2.06-4.26,5.28-3.62,9.05.4,2.34.67,4.7,1.05,7,.17,1-.15,1.4-1.17,1.45C380.61,363.52,378.81,363.71,376.74,363.88Z"/><path class="cls-4" d="M213.84,90.28l3.63-3.92a1.93,1.93,0,0,1,2.22-.6c4.43,1.54,8.82-.61,11.2-4.27a59.55,59.55,0,0,1,4-5.24c.23-.28,1-.51,1.22-.35,1.54,1.22,3,2.55,4.58,3.91-3.23,4.09-6.25,8.26-10.61,11.13-3.85,2.53-8,2.49-12.17,1C216.59,91.5,215.31,90.89,213.84,90.28Z"/><path class="cls-4" d="M337.32,111.4c2.25,0,4.13-.08,6,0a2.26,2.26,0,0,1,1.35,1c2.9,4.45,5.94,5.74,11.2,4.78,2.07-.38,4.18-.59,6.26-.9.77-.11,1.12.17,1.17.94.12,1.68.31,3.36.38,5a1.11,1.11,0,0,1-.61.86c-4.5.48-9,1.12-13.53.5-5.05-.68-8.33-3.65-10.43-8.11C338.54,114.36,338.05,113.09,337.32,111.4Z"/><path class="cls-4" d="M136.76,383.7c-.18-2.09-.39-4-.48-5.94a1.19,1.19,0,0,1,.72-.9c3.61-.28,7.22-.63,10.84-.67,7-.09,11.31,3.68,13.76,9.95.26.64.49,1.29.72,1.94,0,.06,0,.16-.09.56-1.89,0-3.86.07-5.81-.05-.42,0-.9-.63-1.18-1.07-2.8-4.33-6-5.69-11-4.76-2,.38-4.08.64-6.13.93A11.67,11.67,0,0,1,136.76,383.7Z"/><path class="cls-4" d="M363.15,383.8c-2.4-.35-4.61-.7-6.82-1a23.36,23.36,0,0,0-4-.28,8.62,8.62,0,0,0-7.41,4.7,2.67,2.67,0,0,1-3.07,1.5c-1.36-.19-2.74-.17-4.33-.25a13.42,13.42,0,0,1,.57-1.61,53.68,53.68,0,0,1,3.22-5.87,10.75,10.75,0,0,1,8.86-4.63c4.3-.09,8.6.29,12.9.51.27,0,.75.44.74.64C363.65,379.55,363.4,381.55,363.15,383.8Z"/><path class="cls-4" d="M409.59,213.83c1.6,1.48,3.07,2.68,4.31,4.08a2.68,2.68,0,0,1,.23,2.17,9.55,9.55,0,0,0,4.34,10.82c2.12,1.37,4.06,3,6.16,4.62-1.41,1.7-2.71,3.3-4.05,4.85a.88.88,0,0,1-.86.07c-3.78-3.19-7.81-6.11-10.63-10.31-2.34-3.49-2.49-7.25-1.34-11.14C408.25,217.32,408.92,215.69,409.59,213.83Z"/><path class="cls-4" d="M75.3,264.57l4.46-5.31c1.19,1,2.36,1.83,3.42,2.81,2.12,1.95,4.29,3.87,6.24,6,3.45,3.73,4.26,8.16,2.83,13-.5,1.67-1.18,3.3-1.87,5.22-1.61-1.51-3.1-2.74-4.35-4.17a2.86,2.86,0,0,1-.18-2.18c1.06-4.37-.32-7.77-3.91-10.38C79.75,267.94,77.6,266.29,75.3,264.57Z"/><path class="cls-4" d="M162.35,111.58c-2.44,8.08-6.55,12-13.45,12.17-4,.09-8-.32-12-.56-.27,0-.74-.51-.72-.75.15-2,.39-3.94.63-6.17l6.92,1c2.91.44,5.83.66,8.32-1.26a16.19,16.19,0,0,0,3.07-3.42,2.59,2.59,0,0,1,2.46-1.29C159.15,111.43,160.73,111.49,162.35,111.58Z"/><path class="cls-4" d="M383.23,129.6c.09,4,2.73,4.69,5.36,3,.06.06.14.11.16.18.62,3.06.36,3.3-2.76,2.79-1.57-.26-3.17-.33-4.74-.59a2.45,2.45,0,0,1-1.29-.76c-.12-.14.18-1,.33-1a2.77,2.77,0,0,1,1.5.26c.84.42,1.62,1,2.43,1.46s1.21.37,1.68-.61a39.63,39.63,0,0,0-4.85-2.58c-.58-.22-1.54.55-2.33.87l0,.45a22.45,22.45,0,0,0-1.57-1.66c-.19-.18-.58-.13-.87-.18-.05.33-.26.78-.11,1,.52.78,1.17,1.47,2,2.44-2.41-.19-4.52-.34-6.63-.57-.21,0-.48-.54-.52-.85-.13-1-.08-2.08-.26-3.09a1.42,1.42,0,0,0-.91-.91c-1-.18-2.06-.12-3.08-.28-.34,0-.86-.47-.89-.76-.57-5.14-1.11-10.28-1.59-15.43-.16-1.78,0-1.86,1.77-1.7.3,0,.6,0,.9.09,2.9.42,3.26,1,3.34,4,.07,3.13.49,6.26.74,9.4a24.63,24.63,0,0,1,.16,2.71c0,1.08.38,1.46,1.51,1.52C376.19,129,379.67,129.31,383.23,129.6Z"/><path class="cls-4" d="M374.22,354.25c.12.73.19,1.28.3,1.83.5,2.32.28,4.1-2.23,5.47-2.2,1.2-3,3.74-3.14,6.23-.08,1-.39,1.33-1.36,1.42a8.92,8.92,0,0,0-7.4,4.53,1.85,1.85,0,0,1-1.25.87c-1.63,0-3.26-.12-5.06-.22.72-2.91,1.8-5.54,3.9-7.34a70.47,70.47,0,0,0,8.85-8.85C368.63,356,371.34,355,374.22,354.25Z"/><path class="cls-4" d="M411.58,264.32a15.29,15.29,0,0,1-2.33-11.06,16.14,16.14,0,0,0,.05-6,14.92,14.92,0,0,1,2.35-11.47c1.26,1.15,2.5,2.21,3.63,3.36a1.68,1.68,0,0,1,.3,1.39c-1,3.25-.08,6.05,1.94,8.57a1.31,1.31,0,0,1,0,2c-2,2.45-2.91,5.14-1.92,8.32a2.11,2.11,0,0,1-.43,1.72C414.11,262.2,412.89,263.16,411.58,264.32Z"/><path class="cls-4" d="M125.71,145.79c-.13-.93-.2-1.74-.35-2.54a3.76,3.76,0,0,1,2.11-4.54c2.3-1.31,3.13-3.82,3.35-6.4.08-1,.41-1.34,1.36-1.43a9.11,9.11,0,0,0,7.42-4.52,2.25,2.25,0,0,1,1.62-.89c1.46,0,2.92.14,4.6.24a15.45,15.45,0,0,1-.42,1.77,17.55,17.55,0,0,1-7.7,9.08,3.81,3.81,0,0,0-1.24,1.22C134,141.86,130.63,144.76,125.71,145.79Z"/><path class="cls-4" d="M235.71,88.49l1.76-2.26c1.06-1.37,2.16-2.11,4.16-1.58,2.7.72,5.19-.38,7.31-2.12a1.37,1.37,0,0,1,2.08,0,8.67,8.67,0,0,0,8.33,1.94,1.76,1.76,0,0,1,1.44.2c1.21,1.15,2.3,2.41,3.52,3.73a15.94,15.94,0,0,1-8.75,2.56h-.13c-3.7-.73-7.37-.36-11.08,0C241.31,91.26,238.53,90.08,235.71,88.49Z"/><path class="cls-4" d="M88.4,235.8c2.75,4.35,3,8.82,1.9,13.48a3.27,3.27,0,0,0,0,1.46,16.91,16.91,0,0,1-1.55,13,4.17,4.17,0,0,1-.49.54c-1.24-1.14-2.47-2.2-3.61-3.36a1.51,1.51,0,0,1-.29-1.27c1.07-3.51-.06-6.44-2.25-9.12-.1-.13-.19-.28-.31-.45.61-.93,1.28-1.83,1.82-2.79a7.12,7.12,0,0,0,.86-5.84,2.58,2.58,0,0,1,1.07-3.24C86.52,237.52,87.39,236.67,88.4,235.8Z"/><path class="cls-4" d="M145.73,374.38c-1.65.1-3.24.27-4.83.24a1.93,1.93,0,0,1-1.37-.9,8.63,8.63,0,0,0-7.51-4.51c-.76,0-1.1-.36-1.17-1.08-.34-3.38-1.72-6.1-4.81-7.81a1.67,1.67,0,0,1-.67-1.26c0-1.54.11-3.09.19-4.77a12.49,12.49,0,0,1,6.57,3.1,53.93,53.93,0,0,1,4.15,4.74,7.38,7.38,0,0,0,1.7,1.65,15.7,15.7,0,0,1,7.61,9.72A8.2,8.2,0,0,1,145.73,374.38Z"/><path class="cls-4" d="M388.6,162.64c-3.93-1.35-7.46-2.94-9.89-6.17-3.11-4.14-2.83-9-2.5-14l1.56,1.41c.74-.62.74-.62-.27-2.36.7-.7,1.63-1.25,2-2.06a9.89,9.89,0,0,0,.27-3.1,7.82,7.82,0,0,0,.91,1.15,5.42,5.42,0,0,0,1.1.63c.16-.42.33-.84.57-1.46l1.36.2c-.26,1.93-.49,3.79-.76,5.65-.33,2.26-.94,4.51-.28,6.79a9.55,9.55,0,0,0,4.6,5.85,2.36,2.36,0,0,1,1.35,2.5C388.53,159.26,388.6,160.85,388.6,162.64Z"/><path class="cls-4" d="M374.48,144.44c-.05.29-.14.75-.29,1.55a11.42,11.42,0,0,1-1.94-1.24A30.45,30.45,0,0,1,370,142.1c-.62-.77-1.16-.8-1.75.14.29.38.58.79.88,1.19a12.69,12.69,0,0,1-5.15-5.09,5.8,5.8,0,0,0-2.32-2.31,15.43,15.43,0,0,1-7.49-10.33c1.81-.09,3.51-.24,5.2-.22.38,0,.9.5,1.11.9a8.51,8.51,0,0,0,7.52,4.48,1,1,0,0,1,1.12,1.1,9.81,9.81,0,0,0,2.48,6c.57.62.32,1-.37,1.28l-1-.92a2.6,2.6,0,0,0,.31,2.92c.67.48,1.28,1,1.92,1.54S373.67,143.78,374.48,144.44Z"/><path class="cls-4" d="M259.58,409.58l.13,1.64c-1.22.3-2.62.28-3.45.95s-1.1,2.05-1.62,3.14c-2.53-1.09-3.29,1.3-4.44,3-.63-.72-1.09-1.27-1.58-1.81s-1-1.29-1.89-.57c-.13.1-.49,0-.71-.13a7.26,7.26,0,0,0-5.07-.22,2,2,0,0,1-2.41-.69c-.89-1.05-1.81-2.06-2.86-3.25.73-.4,1.33-.79,2-1.08a16.94,16.94,0,0,1,11.12-.91,5.13,5.13,0,0,0,2.37,0A17,17,0,0,1,259.58,409.58Z"/><path class="cls-4" d="M97.51,152.53c-.13-1.69-.28-3.27-.36-4.86-.08-1.36,1-1.74,2-2,2.22-.53,4.46-1,6.7-1.47,2.61-.55,5.23-1.08,7.84-1.64,1.14-.25,1.82-.05,1.78,1.34a10.64,10.64,0,0,0,.35,2.43,1.57,1.57,0,0,1-1.19,2.09c-1.5.4-3,.66-4.53,1-3.85,1-7.69,1.95-11.53,2.92A9.26,9.26,0,0,1,97.51,152.53Z"/><path class="cls-4" d="M426.64,289c-1.12-1.92-2.13-3.71-3.2-5.45-1.76-2.86-3.53-5.72-5.34-8.54-1.2-1.85-1.16-2.41.54-3.74.87-.69,1.76-1.37,2.74-2.13,1.09,1.65,2.17,3.24,3.22,4.83,1.88,2.84,3.76,5.67,5.62,8.52,1.27,2,1.17,2.41-.68,4C428.62,287.28,427.73,288.08,426.64,289Z"/><path class="cls-4" d="M384.73,357.76c-.21-1.71-.47-3.19-.56-4.69-.06-1.08.88-1.44,1.71-1.64,1.76-.44,3.55-.71,5.31-1.14,3.43-.84,6.85-1.75,10.27-2.62.28-.07.57-.09,1-.16.12,1.79.31,3.5.32,5.21,0,1.14-1,1.43-1.88,1.64-2.27.54-4.54,1-6.82,1.5C391.05,356.49,388,357.09,384.73,357.76Z"/><path class="cls-4" d="M426.71,211.11c1.11,1,2.08,1.82,3.06,2.66,1.56,1.33,1.66,1.8.57,3.49q-3.91,6-7.87,12c-.35.53-.72,1.05-1.15,1.66-1.24-1-2.45-1.85-3.58-2.82-.84-.73-.42-1.62,0-2.35,1.28-2.14,2.66-4.23,4-6.36C423.38,216.67,425,213.94,426.71,211.11Z"/><path class="cls-4" d="M142.34,115.25c.5-2.53,1-4.93,1.46-7.32.58-2.83,1.18-5.65,1.77-8.48.41-2,1-2.42,3.05-2.2.65.07,1.29.12,1.94.17s1.19.07,2,.12c-.39,1.56-.76,3-1.1,4.46-.88,3.77-1.76,7.55-2.6,11.33-.52,2.34-1.19,2.83-3.62,2.42C144.29,115.6,143.37,115.43,142.34,115.25Z"/><path class="cls-4" d="M402.43,152.65c-1.32-.35-2.51-.69-3.71-1-4-.94-8-1.85-12-2.78a4.47,4.47,0,0,1-1.69-.59,2.3,2.3,0,0,1-1-1.5,40.66,40.66,0,0,1,.64-4.38c2.24.43,4.39.8,6.52,1.25,3.28.7,6.55,1.48,9.83,2.17,1.23.25,1.82.88,1.71,2.14C402.69,149.45,402.58,150.9,402.43,152.65Z"/><path class="cls-4" d="M115.22,357.68c-3.09-.62-6-1.17-8.9-1.78-2.53-.53-5-1.15-7.57-1.69a1.76,1.76,0,0,1-1.61-2.09c.12-1.49.25-3,.38-4.59.4.05.74.05,1.06.12q7.41,1.77,14.82,3.56c2.3.56,2.87,1.44,2.32,3.32A24.25,24.25,0,0,0,115.22,357.68Z"/><path class="cls-4" d="M347.41,97.57a47.29,47.29,0,0,1,5-.3A2.09,2.09,0,0,1,354,98.46c1.23,5.36,2.33,10.76,3.46,16.15a3.62,3.62,0,0,1,0,.7,42.11,42.11,0,0,1-4.55.55c-1,0-1.36-.91-1.57-1.79q-1.41-6.09-2.83-12.19C348.19,100.51,347.82,99.14,347.41,97.57Z"/><path class="cls-4" d="M73.2,288.94c-1.3-1.16-2.58-2.23-3.79-3.38-1-.92-.36-1.83.18-2.67q3.3-5.1,6.65-10.18c.77-1.18,1.58-2.33,2.39-3.53,1.26,1,2.39,1.8,3.5,2.68.88.7.6,1.59.15,2.34-1.1,1.85-2.3,3.64-3.42,5.48-1.68,2.77-3.32,5.56-5,8.33C73.7,288.3,73.48,288.56,73.2,288.94Z"/><path class="cls-4" d="M357.64,384.82c-.74,3.59-1.43,7-2.12,10.33-.39,2-.76,3.89-1.2,5.82-.36,1.57-1,2-2.56,1.89-1.41-.1-2.81-.24-4.31-.37.9-3.63,1.78-7.12,2.62-10.63.38-1.59.73-3.19,1-4.8.46-2.57,1.07-3.07,3.62-2.73C355.64,384.45,356.56,384.64,357.64,384.82Z"/><path class="cls-4" d="M230.85,78.65c-.89,1.13-1.62,2.09-2.37,3-.94,1.18-1.55,1.36-2.88.59-1.64-1-3.17-2.09-4.78-3.08-3.19-2-6.42-3.86-9.77-5.88,1.17-1.33,2.28-2.62,3.44-3.87a1.45,1.45,0,0,1,2-.15c2.11,1.33,4.22,2.66,6.31,4C225.46,75.05,228.1,76.82,230.85,78.65Z"/><path class="cls-4" d="M288.88,426.81c-1.1,1.26-2.13,2.46-3.18,3.65a1.8,1.8,0,0,1-2.57.17c-1.49-.93-3-1.91-4.43-2.87l-9.58-6.3c1-1.25,1.81-2.45,2.79-3.52a1.92,1.92,0,0,1,1.46-.47,4.16,4.16,0,0,1,1.64.7q6.66,4.08,13.3,8.19A6.76,6.76,0,0,1,288.88,426.81Z"/><path class="cls-4" d="M152.54,402.52c-1.8.12-3.42.25-5,.32-1.09.05-1.47-.7-1.67-1.62q-1.53-7.22-3.08-14.41c-.08-.38-.15-.76-.24-1.14-.17-.66.13-1,.77-1l2.82-.34c1.71-.18,2.12.09,2.52,1.81.88,3.69,1.71,7.39,2.58,11.08C151.59,398.89,152.05,400.59,152.54,402.52Z"/><path class="cls-4" d="M288.9,73.31c-3.24,1.94-6.3,3.77-9.35,5.63-1.65,1-3.25,2.1-4.89,3.13s-2.16.92-3.34-.59c-.69-.87-1.37-1.76-2.18-2.79,1.54-1,3-2.1,4.57-3.11q4.14-2.74,8.3-5.47l.44-.27c2.09-1.22,2.37-1.18,4,.63C287.23,71.37,288,72.28,288.9,73.31Z"/><path class="cls-4" d="M230.87,421.43c-3.26,2.15-6.42,4.24-9.58,6.31-1.59,1-3.2,2-4.8,3a1.47,1.47,0,0,1-2.15-.34c-1.05-1.19-2.13-2.36-3.31-3.65,2.25-1.34,4.39-2.6,6.5-3.9q3.79-2.34,7.54-4.75c1.72-1.11,2.41-1,3.66.56Z"/><path class="cls-4" d="M158.44,101.46c1.49-5.41,2.89-10.54,4.34-15.79l6.61,1.82c-.21.82-.4,1.6-.61,2.37-.88,3.23-1.75,6.47-2.65,9.7-.49,1.78-.68,1.91-2.49,1.9Z"/><path class="cls-4" d="M341.53,398.62l-4.34,15.78-6.61-1.79c.48-1.88.92-3.7,1.41-5.51.61-2.24,1.28-4.47,1.87-6.72.33-1.25.92-1.91,2.35-1.8C337.88,398.72,339.57,398.62,341.53,398.62Z"/><path class="cls-4" d="M72.08,195.46l6-3.38c1.41,2.54,2.75,5,4.13,7.42.72,1.27,1.53,2.5,2.24,3.78a2,2,0,0,1-.55,2.84c-1.31,1-2.51,2.22-3.86,3.44Z"/><path class="cls-4" d="M87.3,169.48l-1.71-6.61,15.63-4.35c.08,2.26.19,4.26.17,6.26a1.42,1.42,0,0,1-.84,1C96.21,167,91.85,168.22,87.3,169.48Z"/><path class="cls-4" d="M209.55,419.91l-14.16,8-3.39-6c1.39-.77,2.71-1.48,4-2.23q3.47-2,6.91-4c1.14-.68,2-.77,3,.43S208.23,418.54,209.55,419.91Z"/><path class="cls-4" d="M419.85,209.59c-1.6-1.52-3.07-2.83-4.43-4.25-.86-.9-.11-1.8.34-2.59,1.31-2.32,2.69-4.6,4-6.92.71-1.22,1.36-2.47,2.08-3.78l6,3.42Z"/><path class="cls-4" d="M412.65,330.61c.58,2.21,1.12,4.32,1.72,6.63l-15.6,4.3c-.1-2.17-.26-4.1-.2-6a1.87,1.87,0,0,1,1.13-1.32C403.92,333,408.16,331.84,412.65,330.61Z"/><path class="cls-4" d="M78.1,308l-6-3.39c2.69-4.72,5.31-9.35,8-14.13,1.62,1.53,3.09,2.85,4.46,4.27.76.78.18,1.64-.24,2.37-1.3,2.29-2.67,4.54-4,6.82C79.6,305.26,78.89,306.59,78.1,308Z"/><path class="cls-4" d="M419.9,290.53c2.69,4.73,5.29,9.33,8,14.07l-6,3.41c-1.06-1.92-2.05-3.77-3.09-5.6s-2.14-3.54-3.13-5.35c-.88-1.58-.74-2,.59-3.21S418.58,291.72,419.9,290.53Z"/><path class="cls-4" d="M209.51,80.19c-1.49,1.57-2.76,3-4.09,4.3-1,1-1.93.21-2.79-.27-2.77-1.56-5.51-3.18-8.27-4.77-.74-.42-1.5-.8-2.34-1.24,1-1.87,2-3.65,3-5.38a1.07,1.07,0,0,1,1-.34C200.48,75,204.91,77.55,209.51,80.19Z"/><path class="cls-4" d="M304.58,72.13l3.38,6c-2.51,1.39-5,2.75-7.46,4.14-1.31.74-2.58,1.56-3.88,2.33a1.67,1.67,0,0,1-2.39-.43c-1.16-1.32-2.41-2.56-3.79-4Z"/><path class="cls-4" d="M414.38,162.84c-.62,2.15-1.13,4.06-1.75,5.93a1.26,1.26,0,0,1-1.12.53c-3.82-1-7.61-2.16-11.42-3.24a2,2,0,0,1-1.62-2.27c.13-1.66.21-3.33.32-5.24Z"/><path class="cls-4" d="M330.59,87.55l6.56-2c1.46,5.29,2.87,10.42,4.38,15.9-2.21,0-4.18.1-6.14-.07-.5,0-1.18-.86-1.35-1.44C332.85,95.9,331.77,91.82,330.59,87.55Z"/><path class="cls-4" d="M85.59,337.25l1.92-6.74c.91.3,1.7.58,2.51.81,3.07.85,6.14,1.71,9.22,2.52,2,.53,2.32.92,2.2,3-.09,1.5-.15,3-.24,4.73Z"/><path class="cls-4" d="M169.39,412.52l-6.57,2c-1.44-5.21-2.86-10.33-4.35-15.74,2.23-.06,4.23-.15,6.22-.12a1.4,1.4,0,0,1,1,.86C167,403.81,168.15,408.11,169.39,412.52Z"/><path class="cls-4" d="M290.47,419.9c1.48-1.56,2.83-3,4.2-4.42.72-.74,1.45-.28,2.12.09,2.84,1.61,5.67,3.26,8.51,4.88.85.49,1.72.93,2.64,1.43-1,1.87-2,3.65-3,5.38a1.06,1.06,0,0,1-1,.3C299.45,425.06,295,422.51,290.47,419.9Z"/><path class="cls-4" d="M424,168.12c5.36,2.92,8.69,11,6.94,16.78a7.62,7.62,0,0,1-1.16-.31c-1.5-.64-3-1.35-4.48-2a1.07,1.07,0,0,1-.73-1.42,5.31,5.31,0,0,0-2.28-5.85,1.37,1.37,0,0,1-.52-1.89C422.51,171.69,423.22,169.91,424,168.12Z"/><path class="cls-4" d="M76,332.07c-6-4.14-8.49-10.93-6.8-17,2,.89,4,1.75,6,2.7.23.11.35.77.27,1.12a5.17,5.17,0,0,0,2.13,5.68,1.6,1.6,0,0,1,.62,2.28C77.38,328.54,76.71,330.26,76,332.07Z"/><path class="cls-4" d="M185,69.12c-.88,2-1.68,4-2.61,5.85a1.56,1.56,0,0,1-1.38.47,5.09,5.09,0,0,0-5.53,2.19,1.58,1.58,0,0,1-2.2.58c-1.69-.75-3.41-1.42-5.13-2.12A15.54,15.54,0,0,1,185,69.12Z"/><path class="cls-4" d="M315.13,69.18a15.57,15.57,0,0,1,16.81,6.87c-2.05.84-4,1.69-6.07,2.44-.24.09-.79-.23-1-.51a5.62,5.62,0,0,0-6-2.55,1.21,1.21,0,0,1-1.58-.87C316.58,72.76,315.85,71,315.13,69.18Z"/><path class="cls-4" d="M315,430.93c.84-2,1.6-3.89,2.5-5.73a1.55,1.55,0,0,1,1.36-.55c2.53.54,4.33-.46,5.85-2.38a1.73,1.73,0,0,1,1.48-.54c1.9.66,3.74,1.49,5.6,2.25C329.93,429,320.89,432.74,315,430.93Z"/><path class="cls-4" d="M424,331.93c-.79-1.91-1.61-3.8-2.31-5.72a1.48,1.48,0,0,1,.4-1.31,5.8,5.8,0,0,0,2.57-6.28,1.18,1.18,0,0,1,.45-1c1.9-.89,3.84-1.68,5.78-2.51C432.59,321,429.5,328.67,424,331.93Z"/><path class="cls-4" d="M168.08,424c1.95-.79,3.88-1.63,5.85-2.33a1.51,1.51,0,0,1,1.24.55,5.59,5.59,0,0,0,5.84,2.44,1.38,1.38,0,0,1,1.77,1c.65,1.77,1.36,3.51,2.05,5.27C179,432.65,170.88,429.3,168.08,424Z"/><path class="cls-4" d="M76,168.16c.78,1.92,1.6,3.81,2.29,5.74a1.52,1.52,0,0,1-.46,1.31c-2.11,1.63-3.1,3.63-2.47,6.33a1.18,1.18,0,0,1-.54,1c-1.87.86-3.77,1.64-5.68,2.46C67.34,179.68,70.25,171.43,76,168.16Z"/><path class="cls-4" d="M246.37,417.66l1.46,1.33c-2.06,1.46-2.3,3.24-.82,5.28-1.73,1.46-3.42,2.86-5.07,4.31-.91.79-1.76,1.65-2.62,2.49-1.3,1.26-2.29,1.41-3.84.54-3.2-1.79-3.29-2.41-.5-4.71C238.7,423.82,242.48,420.81,246.37,417.66Z"/><path class="cls-4" d="M252.15,421l4.38-.91c2.16,1.76,4.68,3.83,7.22,5.89,1,.78,2,1.55,2.94,2.31.53.4.78.87.19,1.37a31.21,31.21,0,0,1-2.66,2,2.27,2.27,0,0,1-3.05-.3c-2.47-2.2-4.91-4.44-7.5-6.5C252.23,423.8,251.53,422.63,252.15,421Z"/><path class="cls-4" d="M69.71,257.9a22.18,22.18,0,0,1-3.29-7.72,3.54,3.54,0,0,1,.41-1.86c.8-2.06,1.65-4.1,2.6-6.42a61.11,61.11,0,0,1,4.07,4.67c.3.41,0,1.48-.33,2.08a2.24,2.24,0,0,0-.08,2.6,2.29,2.29,0,0,1-.42,3.28A41.63,41.63,0,0,0,69.71,257.9Z"/><path class="cls-4" d="M383.34,128.17c-2.34-.2-4.26-.32-6.17-.56a1.42,1.42,0,0,1-.85-1,3.32,3.32,0,0,0-2.85-2.91,1.53,1.53,0,0,1-1.32-1.75c0-1.59,0-3.17,0-5,1.2.4,2.54.89,3.9,1.3a7.59,7.59,0,0,1,5.63,5.48C382.06,125.17,382.69,126.48,383.34,128.17Z"/><path class="cls-4" d="M116.63,127.78c1.12-2.45,2.23-4.9,3.35-7.34a.78.78,0,0,1,.24-.3,29.82,29.82,0,0,1,7.85-3.27c-.16,2.17-.27,4.14-.5,6.08,0,.31-.59.72-1,.8-1.42.29-2.43.89-2.68,2.47-.17,1.07-.88,1.5-2,1.52-1.62,0-3.24.26-4.85.41Z"/><path class="cls-4" d="M430.52,258.18c-1.51-1.69-2.66-3-3.86-4.31-.77-.82-.45-1.61,0-2.34a2.18,2.18,0,0,0,.14-2.79,2.23,2.23,0,0,1,.51-3.26,41.14,41.14,0,0,0,3.09-3.51c1,2.25,1.81,4.28,2.69,6.3a4.45,4.45,0,0,1,0,3.61C432.27,253.88,431.46,255.9,430.52,258.18Z"/><path class="cls-4" d="M127.81,383.36c-2.54-1.14-5-2.23-7.45-3.34a1,1,0,0,1-.38-.34,30.76,30.76,0,0,1-3.22-7.76c2.19.18,4.15.31,6.1.56.31,0,.71.63.8,1a3.29,3.29,0,0,0,2.77,2.81,1.62,1.62,0,0,1,1.4,1.85C127.78,379.73,127.81,381.31,127.81,383.36Z"/><path class="cls-4" d="M383.35,372.26c-1.14,2.48-2.26,5-3.4,7.45a.59.59,0,0,1-.27.27l-7.46,3.41-.32-.35c.16-2,.28-4.07.54-6.1,0-.27.7-.58,1.12-.67A2.64,2.64,0,0,0,376,374a1.9,1.9,0,0,1,2.16-1.71c1.61,0,3.22-.24,4.83-.37Z"/><path class="cls-4" d="M258.15,430.55c-2.77,1.09-5.19,2.06-7.63,3a1.63,1.63,0,0,1-1.11,0c-2.44-.92-4.86-1.89-7.58-3,1.79-1.53,3.21-2.81,4.73-4a1.51,1.51,0,0,1,1.38.08,3.49,3.49,0,0,0,4.19,0,1.24,1.24,0,0,1,1.7.22C255.12,428,256.44,429.1,258.15,430.55Z"/><path class="cls-4" d="M78.52,231l-3.78-5.86h1.35a6.93,6.93,0,0,0-.49-1.39A21.53,21.53,0,0,1,74.28,222a1.79,1.79,0,0,1,0-1.4c.08-.17.86-.19,1.21,0,.89.42,1.7,1,2.59,1.45a8.79,8.79,0,0,0,1.63.49l.14-.3c.77,1.13,1.59,2.23,2.31,3.4.86,1.37.71,2-.53,3Z"/><path class="cls-4" d="M73,220.31A30.44,30.44,0,0,1,69.48,217c-1-1.33-.77-2,.5-3.08,1.07-.91,2.13-1.84,3.38-2.92l5.39,9.6a2.85,2.85,0,0,1-.68-.18c-.64-.35-1.26-.75-1.9-1.1C74.59,218.49,74,218.66,73,220.31Z"/><path class="cls-4" d="M245.87,73,242,69.72l4.58-2.35,2,2.6Z"/><path class="cls-4" d="M70.54,229.77c-.88,0-1.45,0-2,0-.88,0-2.2-2-1.87-2.78.08-.2.15-.57,0-.67a1.66,1.66,0,0,0-.77-.23c-.28,0-.57-.07-.85-.1a2.17,2.17,0,0,1,.33-.74c1.44-1.47,2.9-2.9,4.49-4.47L71,222.35c-3.11.61-4.08,3.62-1.83,5.74A15.91,15.91,0,0,1,70.54,229.77Z"/><path class="cls-4" d="M70.88,227.17a1.64,1.64,0,0,1-1.58-1.8,1.69,1.69,0,0,1,3.37.14A1.81,1.81,0,0,1,70.88,227.17Z"/><path class="cls-4" d="M262.67,63.57a1.64,1.64,0,0,1-1.53-1.71,1.65,1.65,0,0,1,3.29.1A1.68,1.68,0,0,1,262.67,63.57Z"/><path class="cls-4" d="M81.9,217.88a1.61,1.61,0,0,1-1.68,1.53c-.7.05-1.69-1.11-1.58-1.86a1.53,1.53,0,0,1,1.69-1.42C81.34,216.17,81.84,216.83,81.9,217.88Z"/><path class="cls-4" d="M89.16,211.68a1.61,1.61,0,0,1-1.66,1.55c-1.06,0-1.55-.63-1.6-1.63a1.59,1.59,0,0,1,1.6-1.66A1.75,1.75,0,0,1,89.16,211.68Z"/><path class="cls-4" d="M393.85,126.1c-1.32,0-2.09-.81-2.07-1.67s1-2,1.64-1.58a3.7,3.7,0,0,1,1.48,2C395,125.2,394.1,125.82,393.85,126.1Z"/><path class="cls-4" d="M62.51,229.23c.43-.63.86-.76,1.4-.09.84,1,1.77,2,2.56,3.06.2.26,0,.79.06,1.2-.39-.1-.91-.06-1.14-.3-.89-.93-1.71-1.93-2.51-2.93a3.39,3.39,0,0,1-.35-1Z"/><path class="cls-4" d="M259.53,415.49c-1-.1-1.72-.2-2.4-.23-.87,0-1.08-.61-.77-1.2a2.64,2.64,0,0,1,1.38-1.32,1.82,1.82,0,0,1,1.6.67A5.28,5.28,0,0,1,259.53,415.49Z"/><path class="cls-4" d="M251.89,66.94l-1,3.39-2.74-3.25A3.56,3.56,0,0,1,251.89,66.94Z"/><path class="cls-4" d="M386.41,132.5c-1.15-.28-2-1.14-1.88-1.95.12-1.18,1-.8,1.69-.77s1.73-.08,1.53,1C387.63,131.41,386.87,131.93,386.41,132.5Z"/><path class="cls-4" d="M250.77,421.5,248,423.2a1.51,1.51,0,0,1-.36-2.16,1.89,1.89,0,0,1,1.53-.77C249.85,420.47,251,420.62,250.77,421.5Z"/><path class="cls-4" d="M376.48,139.89c.13-1.14.25-2.14.36-3.19,1.2,0,1.75.59,1.71,1.63S377.77,140,376.48,139.89Z"/><path class="cls-4" d="M371.78,140.08c.9-.23,1.55-.62,1.93-.44,1.26.6,1,1.77.88,2.83l-.34.26Z"/><path class="cls-4" d="M254.42,70.71l.31-2.75c1.05.66,1.94,1.21,2.79,1.81,0,0-.28.49-.46.79l-.72-1.42-1.53,1.79Z"/><path class="cls-4" d="M58.24,237.87,59.3,235a1.3,1.3,0,0,1,.83,1.82A1.5,1.5,0,0,1,58.24,237.87Z"/><path class="cls-4" d="M261.14,410.05l2.68,1.28a1.42,1.42,0,0,1-2.08.5c-.47-.29-.71-.94-1.05-1.43Z"/><path class="cls-4" d="M250.86,72.51l-3.19.8a1.52,1.52,0,0,1,1.26-1.68A1.57,1.57,0,0,1,250.86,72.51Z"/><path class="cls-4" d="M254.88,72.52l-2.25,1.17-.43-1.5,2.55.13Z"/><path class="cls-4" d="M253.63,68.17l-.28,2.46-.41.14c-.21-.46-.6-.94-.56-1.38a4.3,4.3,0,0,1,.77-1.46Z"/><path class="cls-4" d="M261,413.13l1.86.31-2,2.2Z"/><path class="cls-2" d="M47,154.1S82.8,211,95.25,222.44s42,32.64,55.67,51.23,39.68,58.43,58.67,73.89,43.92,43.33,55.37,56.92S297.81,449,297.81,449l8.9,3.41s-16-33.2-25.08-43.86-22.66-37.3-46-52.94-30.35-18.22-45.72-40.79-25.58-49.62-40.77-58.72S103,225.63,97,215.94,60.2,153.79,60.2,153.79L44.89,148Z"/><path class="cls-2" d="M105.12,86.26s15.24,33.21,25.76,43.89,36.76,28.76,45.39,38,26.64,31.36,31.28,36-19.47-29.54-26.29-40.95-32.91-22.19-38.74-28.9-15.76-21-20.7-30.94-11.19-21.87-11.19-21.87Z"/><path class="cls-2" d="M178,35.35s19.93,37.19,36.46,51.94,57.82,45.14,62.94,52.46,37.31,49.34,42.52,55.34,34.46,38.94,34.89,39.43-30.14-39.84-36-47.16-18.55-29.1-27.45-39.34-7.77-16.78-22.38-25.76S229.34,96.62,224.43,91s-13-12.84-19.23-23.55S181.78,34.5,181.78,34.5Z"/><path class="cls-2" d="M409.34,406.61s-4.19-9.57-21.47-24.7-37.15-34.2-44.29-39.56-26.17-30.11-26.17-30.11l-11.26-11.69s23.13,24.5,33.1,30.7,31.16,19.17,36.48,25.28L410.89,397Z"/><path class="cls-2" d="M275.39,16.33s32.89,41.41,49.07,56.46,51,63.63,53.23,66.24,27.05,29.38,43.5,44.2,63.69,69.16,63.69,69.16l2.1-11.12s-13.61-24.93-24.38-35.9S446.28,193,433.69,183.51s-25.53-18.69-34.43-28.92S378.48,134.24,371,118.47s-22-36-30.2-41.88-24.79-20-31.23-27.38-26.06-34.34-26.06-34.34Z"/><path class="cls-2" d="M39.81,294.91s49.82,44,69.2,67.54,46.23,78.34,46.23,78.34l7.36,5.58s-31.22-71-37.44-79.48-73-85.29-90.53-88.09Z"/></g><circle class="cls-6" cx="308.43" cy="203.51" r="35.47"/><circle class="cls-7" cx="308.43" cy="203.51" r="29.3"/><path class="cls-6" d="M281.81,202.25s1.66-15.92,13.65-22.25,13.6,1.63,13.51,3.27-1.88,4.17-5.35,5.33a23.25,23.25,0,0,0-12.29,11.75c-2.57,6.16-5.16,7.28-6.89,7.09S281.2,205.57,281.81,202.25Z"/><circle class="cls-6" cx="193.7" cy="315.33" r="27.75"/><circle class="cls-7" cx="193.7" cy="315.33" r="22.93"/><path class="cls-6" d="M172.87,314.35s1.3-12.46,10.68-17.41,10.64,1.27,10.57,2.56-1.47,3.26-4.18,4.17a18.23,18.23,0,0,0-9.62,9.19c-2,4.82-4,5.7-5.39,5.55S172.39,317,172.87,314.35Z"/></svg>