<svg id="Vrstva_1" data-name="Vrstva 1" xmlns="http://www.w3.org/2000/svg" xmlns:xlink="http://www.w3.org/1999/xlink" viewBox="0 0 500 500"><defs><style>.cls-1{fill:none;}.cls-2{fill:#473c2c;}.cls-3{fill:#d85b2a;}.cls-4{fill:#962c2c;}.cls-5{fill:#efefef;}.cls-6{clip-path:url(#clip-path);}.cls-7{fill:#bfbfbf;}.cls-8{fill:#a3a3a3;}</style><clipPath id="clip-path"><path class="cls-1" d="M462,250c0,117.08-94.91,212-212,212S38,367.08,38,250,132.91,38,250,38,462,132.93,462,250Z"/></clipPath></defs><circle class="cls-2" cx="250" cy="250" r="226.93"/><path class="cls-3" d="M250,41.32V250H41.3C41.3,134.75,134.73,41.32,250,41.32Z"/><path class="cls-4" d="M458.71,250H250V41.32C365.28,41.32,458.71,134.75,458.71,250Z"/><path class="cls-4" d="M250,250V458.69C134.73,458.69,41.3,365.26,41.3,250Z"/><path class="cls-3" d="M458.71,250c0,115.26-93.43,208.69-208.72,208.69V250Z"/><path class="cls-5" d="M370.07,211.89a35.89,35.89,0,0,0-25.68,10.94c-24.2-17-56.82-27.94-93-29.1l18.78-85.87L330,121.48a26.83,26.83,0,0,0,26.57,27c14.91,0,26.91-12.45,26.91-27.31s-11.91-27.32-26.9-27.32c-10.44,0-19.45,6.39-23.94,15.13l-66-14.85c-3.32-.9-6.58,1.51-7.47,4.89l-20.61,94.66c-35.87,1.51-68.15,12.44-92.42,29.45a35.83,35.83,0,0,0-26-11.22c-37.69,0-50,51.32-15.52,68.87a78.12,78.12,0,0,0-1.77,17c0,57.65,64,104.37,142.59,104.37,78.92,0,142.92-46.72,142.92-104.37a66.7,66.7,0,0,0-2.09-17.27c33.82-17.62,21.37-68.56-16.12-68.59ZM159.31,284.4a27,27,0,0,1,26.91-27.31c14.64,0,26.58,12.1,26.58,27.31a26.75,26.75,0,1,1-53.49,0Zm145.28,64.32c-24.68,25-94.31,25-119,0a6.5,6.5,0,1,1,8.95-9.43c18.85,19.61,81.37,19.95,101,0a6.52,6.52,0,0,1,9,9.43ZM304,311.44a26.81,26.81,0,0,1-26.57-27c0-15.13,11.93-27.31,26.57-27.31a27.14,27.14,0,0,1,0,54.27Z"/><g class="cls-6"><path class="cls-2" d="M160.9,47.24s-10.14,65.49-8.3,82.1,10.15,51.47,8.3,74.17-8.26,69.19-4.13,93,4.67,60.7,4.4,78.23-4.37,54.42-4.37,54.42l4.43,8.3s9.58-35.05,9.7-48.89,7.26-42.43,0-69.18-10.8-33.21-7.65-60,13.07-53.51,7.65-70.11-14.64-52.58-12.79-63.65,12.79-70.11,12.79-70.11l-7.65-14.22Z"/><path class="cls-2" d="M248.08,34.32s-10.15,34.6-9.23,49.36,8.77,45.2,9.23,57.65-.46,40.59,0,47,4.61-34.6,6.92-47.51-10.15-37.82-10.15-46.58,1.84-25.83,4.61-36.44,5.82-23.53,5.82-23.53Z"/><path class="cls-2" d="M335.25,43.55s-9.22,40.59-6.46,62.27,13.84,71,12.92,79.79-4.15,60.88-4.15,68.72.46,51.3.46,51.94,3.34-49.17,3.74-58.39,5-33.67,5-47,5.08-17.53,0-33.67S333.87,122.42,333.87,115s-1.39-18,.92-30,3.87-39.67,3.87-39.67Z"/><path class="cls-2" d="M267.3,469.73s3.07-9.84,0-32.29-5.54-49.5-7.38-58.11,0-39.36,0-39.36l-.82-16s1.36,33.21,4.78,44.28,10.8,34.44,10.8,42.43v52.89Z"/><path class="cls-2" d="M420.12,92.44s-2.31,52.12,0,73.8-3.23,80.35-3.23,83.76,1.12,39.39,3.79,61.07,2.67,92.7,2.67,92.7l8.76-6.92s6-27.36,5.07-42.5-4.15-19.76-7.38-35-6.91-30.44-6.91-43.82-2.31-28.6,2.3-45.2,6.92-41,4.61-50.74-5.53-30.9-5.53-40.59,2.82-42.43,2.82-42.43Z"/><path class="cls-2" d="M64.43,147.43s8.64,65,7.81,95.07S56,330.74,56,330.74l1.87,8.93s22.72-73.09,23.56-83.41S82.23,145.5,71,132.08Z"/></g><circle class="cls-7" cx="250" cy="250" r="56.27"/><circle class="cls-8" cx="250" cy="250" r="46.49"/><path class="cls-7" d="M207.72,250.34S209,225,227.4,213.9s21.68,1.38,21.68,4-2.62,6.76-8,8.91-14.91,9.69-18.45,19.68-7.53,12-10.3,11.84S207,255.65,207.72,250.34Z"/></svg>