<svg id="Vrstva_1" data-name="Vrstva 1" xmlns="http://www.w3.org/2000/svg" xmlns:xlink="http://www.w3.org/1999/xlink" viewBox="0 0 500 500"><defs><style>.cls-1,.cls-6,.cls-7{fill:none;}.cls-2{fill:#473c2c;}.cls-3{fill:#4e6644;}.cls-4{fill:#657c40;}.cls-5{clip-path:url(#clip-path);}.cls-6,.cls-7{stroke:#efefef;stroke-linecap:round;stroke-miterlimit:10;stroke-width:14px;}.cls-7{stroke-dasharray:24.14 32.18;}.cls-8{fill:#efefef;}.cls-9{fill:#bfbfbf;}.cls-10{fill:#a3a3a3;}.cls-11{clip-path:url(#clip-path-2);}</style><clipPath id="clip-path"><path class="cls-1" d="M412.68,109c77.84,89.58,68.34,225.31-21.27,303.18S166.11,480.53,88.26,391,19.92,165.65,109.5,87.8,334.83,19.44,412.68,109Z"/></clipPath><clipPath id="clip-path-2"><path class="cls-1" d="M190.67,43.45C304.74,10.69,423.77,76.6,456.54,190.7S423.4,423.79,309.33,456.56,76.24,423.41,43.47,309.35,76.61,76.22,190.67,43.45Z"/></clipPath></defs><circle class="cls-2" cx="250" cy="250" r="230.03"/><path class="cls-3" d="M439.36,155.71,250,250,155.71,60.62C260.3,8.55,387.29,51.12,439.36,155.71Z"/><path class="cls-4" d="M344.29,439.39,250,250l189.36-94.28C491.45,260.32,448.88,387.31,344.29,439.39Z"/><path class="cls-4" d="M250,250,60.63,344.27C8.56,239.69,51.13,112.69,155.71,60.62Z"/><path class="cls-3" d="M344.29,439.39c-104.58,52.07-231.57,9.5-283.66-95.12L250,250Z"/><g class="cls-5"><path class="cls-6" d="M120.57,469.85c.07-3,.24-7.15.69-12"/><path class="cls-7" d="M127.9,426.46c5-14.26,13.36-28.77,27.46-39.16,11.83-8.72,24.18-12,41.81-14.47,87.67-12.47,118.78,19.81,158.07-.16,34.25-17.41,45.35-59.59,51.87-84.4,5.54-21,17-64.52-7.46-107.27-16.25-28.43-41.11-43.84-60.33-52"/><path class="cls-6" d="M324.2,123.51c-5.51-1.66-9.64-2.53-11.63-2.94"/><rect class="cls-8" x="244.76" y="68.64" width="17.42" height="78" transform="translate(113.41 -129.46) rotate(36.42)"/><rect class="cls-8" x="244.76" y="68.64" width="17.42" height="78" transform="translate(490.56 -32.42) rotate(126.42)"/></g><circle class="cls-9" cx="250" cy="250" r="57.04"/><circle class="cls-10" cx="250" cy="250" r="47.13"/><path class="cls-9" d="M207.14,250.34s1.25-25.71,20-36.93,22,1.4,22,4.05-2.64,6.85-8.1,9-15.12,9.81-18.7,19.94-7.64,12.16-10.44,12S206.45,255.73,207.14,250.34Z"/><g class="cls-11"><path class="cls-2" d="M77.39,393.55s66.65-8.44,82.31-14.88,47.31-24.3,69.94-28.85,69.72-11.31,91.75-22,57.82-21.52,75-26.17,54.25-11,54.25-11l6.85-6.64s-36.83.47-50.35,4.23-43.37,4.8-67.4,19.36-29.33,19.82-56.28,24.23S227.65,334.1,213,344s-47.13,29-58.43,30.28-71.89,7.15-71.89,7.15L71,392.89Z"/><path class="cls-2" d="M40.41,312.24s36.54.2,50.67-4.83,41.58-21.18,53.59-25.12,39.67-10.91,45.83-13.16-35,5.18-48.22,6.55-34,20.47-42.55,22.92S74.05,304,62.94,304.3s-24.54.92-24.54.92Z"/><path class="cls-2" d="M25,224.72s42.12-2.37,62.47-11.13,65.33-33.36,74.12-34.91,60.48-13,68.12-15.19,49.84-14.8,50.47-15S231.35,159,222.25,161.2,188,165.73,175,169.48s-18.49,0-32.8,9.42S102.23,204,95,206.07s-17.13,6.38-29.46,7.49-39.73,7.33-39.73,7.33Z"/><path class="cls-2" d="M459.24,171.67s-10.45-.24-31.46,9S381.1,200,373.23,204.16s-38.35,11-38.35,11l-15.35,5.27s32-10.62,41.8-17.05,30.53-20.15,38.32-22.39l51.53-14.8Z"/><path class="cls-2" d="M48.89,128.36s51.42-12.34,71.9-20.65S200,88.37,203.3,87.41s38.06-12.11,58.43-20.78,89.58-28.54,89.58-28.54l-9.2-6.6s-28.33,1.81-42.83,7-18.09,9.57-32,17-27.73,15.26-40.76,19-27.21,10.25-44.68,10.4-41.93,4.75-50.72,9.71-28.56,14-38,16.75S51,120.41,51,120.41Z"/><path class="cls-2" d="M202,459.51s60.88-26.6,90.44-34.22S383,416.45,383,416.45l8.18-4.32s-77.57-1.68-87.86.39-108.14,30.19-118.07,44.89Z"/></g></svg>