<svg id="Vrstva_1" data-name="Vrstva 1" xmlns="http://www.w3.org/2000/svg" xmlns:xlink="http://www.w3.org/1999/xlink" viewBox="0 0 500 500"><defs><style>.cls-1{fill:none;}.cls-2{fill:#473c2c;}.cls-3{fill:#746596;}.cls-4{fill:#efefef;}.cls-5{clip-path:url(#clip-path);}.cls-6{fill:#bfbfbf;}.cls-7{fill:#a3a3a3;}</style><clipPath id="clip-path"><path class="cls-1" d="M399.7,404.19c-85.15,82.67-221.19,80.66-303.89-4.52s-80.65-221.19,4.5-303.86,221.19-80.65,303.86,4.5S484.85,321.53,399.7,404.19Z"/></clipPath></defs><g id="DISCORD"><circle class="cls-2" cx="250" cy="250" r="230.03"/><path class="cls-3" d="M439.36,155.71,250,250,155.71,60.62C260.3,8.55,387.29,51.12,439.36,155.71Z"/><path class="cls-3" d="M344.29,439.39,250,250l189.36-94.28C491.45,260.32,448.88,387.31,344.29,439.39Z"/><path class="cls-3" d="M250,250,60.63,344.27C8.56,239.69,51.13,112.69,155.71,60.62Z"/><path class="cls-3" d="M344.29,439.39c-104.58,52.07-231.57,9.5-283.66-95.12L250,250Z"/><path class="cls-4" d="M369.63,159.78c-38.49-28.88-75.12-28.08-75.12-28.08L290.77,136c45.45,13.9,66.57,34,66.57,34a218.14,218.14,0,0,0-80.47-25.66,226.67,226.67,0,0,0-54,.53,26,26,0,0,0-4.54.54c-9.36.8-32.08,4.28-60.69,16.84-9.89,4.55-15.77,7.75-15.77,7.75s22.19-21.12,70.31-35l-2.67-3.21s-36.63-.8-75.13,28.08c0,0-38.5,69.77-38.5,155.86,0,0,22.46,38.76,81.54,40.63,0,0,9.9-12,17.92-22.19-33.42-10-46.39-30.87-46.76-31.52.32.22,2.94,2,7.46,4.52a3.37,3.37,0,0,0,1.07.8c.8.54,1.6.81,2.4,1.34A158,158,0,0,0,179,318.31a224.06,224.06,0,0,0,39.3,11.5,187.18,187.18,0,0,0,69.24.26,176,176,0,0,0,38.76-11.49,153.11,153.11,0,0,0,30.75-15.78s-13.37,21.93-48.39,31.82c8,10.16,17.64,21.65,17.64,21.65,59.09-1.87,81.81-40.63,81.81-40.63C408.13,229.55,369.63,159.78,369.63,159.78ZM202,290.77c-15,0-27.27-13.36-27.27-29.67s12-29.68,27.27-29.68,27.54,13.37,27.27,29.68C229.28,277.41,217.25,290.77,202,290.77Zm97.58,0c-15,0-27.27-13.36-27.27-29.67s12-29.68,27.27-29.68,27.27,13.37,27.27,29.68S314.83,290.77,299.59,290.77Z"/><g class="cls-5"><path class="cls-2" d="M334.56,42S279.76,80.9,269,94s-30.28,43.72-48.08,58.4S164.75,195.22,150.36,215s-40.85,46.24-53.78,58.42-42.67,35.26-42.67,35.26L51,317.79S83.26,300,93.41,290.32s36-24.68,50.32-48.85,16.52-31.3,38.2-47.9,48.14-28.27,56.39-43.94,27.91-47.77,37.26-54.24,60-40.2,60-40.2l4.95-15.61Z"/><path class="cls-2" d="M405.5,96.31s-32.32,17-42.4,28.14-26.69,38.29-35.42,47.42-29.84,28.32-34.22,33.22S321.88,184,332.9,176.58s20.34-34.09,26.72-40.28,20.08-16.89,29.75-22.37,21.22-12.38,21.22-12.38Z"/><path class="cls-2" d="M460.35,166.23s-36,22-49.85,39.27-41.89,60.21-48.91,65.73-47.21,40-52.91,45.51-37,36.55-37.45,37,38.12-32.3,45.11-38.51,28-20.13,37.76-29.57,16.33-8.69,24.49-23.78,23.42-41,28.79-46.19,12.1-13.71,22.45-20.5S461.41,170,461.41,170Z"/><path class="cls-2" d="M102.41,417.73s9.33-4.71,23.48-22.8S158,356,163,348.53s28.62-27.79,28.62-27.79l11.05-11.89s-23.18,24.44-28.82,34.74-17.43,32.17-23.24,37.82l-38.47,37.34Z"/><path class="cls-2" d="M484.71,262.47S445.18,297.6,431,314.58s-60.72,54.39-63.2,56.8S340,400,326.11,417.25s-65.54,67.4-65.54,67.4l11.22,1.49s24.13-15,34.49-26.33,11.44-17,20.23-30.06,17.26-26.53,27-36,19.17-21.87,34.51-30.24,34.74-24,40.15-32.47,18.57-25.85,25.61-32.69,32.85-27.91,32.85-27.91Z"/><path class="cls-2" d="M193.57,42.61S152.42,94.77,130,115.42,54.28,165.9,54.28,165.9l-5.17,7.66s69.2-35.08,77.29-41.77,81.14-77.6,83-95.24Z"/></g><circle class="cls-6" cx="249.99" cy="196.55" r="18.82"/><circle class="cls-7" cx="249.99" cy="196.55" r="15.55"/><path class="cls-6" d="M235.84,196.66s.41-8.49,6.58-12.19,7.26.46,7.26,1.34a3.86,3.86,0,0,1-2.68,3,12.33,12.33,0,0,0-6.17,6.58c-1.18,3.35-2.52,4-3.45,4S235.61,198.44,235.84,196.66Z"/><circle class="cls-6" cx="293.47" cy="236.43" r="18.82"/><circle class="cls-7" cx="293.47" cy="236.43" r="15.55"/><path class="cls-6" d="M279.33,236.54s.41-8.48,6.58-12.19,7.25.47,7.25,1.34a3.83,3.83,0,0,1-2.67,3,12.36,12.36,0,0,0-6.17,6.59c-1.19,3.34-2.52,4-3.45,4S279.1,238.32,279.33,236.54Z"/><circle class="cls-6" cx="312.29" cy="182.96" r="18.82"/><circle class="cls-7" cx="312.29" cy="182.96" r="15.55"/><path class="cls-6" d="M298.15,183.07s.41-8.48,6.58-12.18,7.26.46,7.26,1.33a3.85,3.85,0,0,1-2.68,3,12.33,12.33,0,0,0-6.17,6.58c-1.18,3.34-2.52,4-3.45,4S297.92,184.85,298.15,183.07Z"/></g></svg>